<svg width="294" height="45" viewBox="0 0 294 45" fill="none" xmlns="http://www.w3.org/2000/svg">
<path d="M38.0488 21.8223V23.5508C38.0488 26.8125 37.5898 29.7422 36.6719 32.3398C35.7734 34.918 34.4941 37.125 32.834 38.9609C31.1738 40.7773 29.2109 42.1738 26.9453 43.1504C24.6797 44.1074 22.1797 44.5859 19.4453 44.5859C16.6914 44.5859 14.1719 44.1074 11.8867 43.1504C9.62109 42.1738 7.64844 40.7773 5.96875 38.9609C4.30859 37.125 3.01953 34.918 2.10156 32.3398C1.20312 29.7422 0.753906 26.8125 0.753906 23.5508V21.8223C0.753906 18.5605 1.20312 15.6309 2.10156 13.0332C3.01953 10.4355 4.29883 8.22852 5.93945 6.41211C7.59961 4.57617 9.5625 3.17969 11.8281 2.22266C14.1133 1.24609 16.6328 0.757812 19.3867 0.757812C22.1211 0.757812 24.6211 1.24609 26.8867 2.22266C29.1719 3.17969 31.1445 4.57617 32.8047 6.41211C34.4648 8.22852 35.7539 10.4355 36.6719 13.0332C37.5898 15.6309 38.0488 18.5605 38.0488 21.8223ZM27.6191 23.5508V21.7637C27.6191 19.6543 27.4336 17.7988 27.0625 16.1973C26.7109 14.5762 26.1836 13.2187 25.4805 12.125C24.7773 11.0313 23.9082 10.2109 22.873 9.66406C21.8574 9.09766 20.6953 8.81445 19.3867 8.81445C18.0195 8.81445 16.8281 9.09766 15.8125 9.66406C14.7969 10.2109 13.9473 11.0313 13.2637 12.125C12.5801 13.2187 12.0625 14.5762 11.7109 16.1973C11.3789 17.7988 11.2129 19.6543 11.2129 21.7637V23.5508C11.2129 25.6406 11.3789 27.4961 11.7109 29.1172C12.0625 30.7188 12.5801 32.0762 13.2637 33.1895C13.9668 34.3027 14.8262 35.1426 15.8418 35.709C16.877 36.2754 18.0781 36.5586 19.4453 36.5586C20.7539 36.5586 21.916 36.2754 22.9316 35.709C23.9473 35.1426 24.7969 34.3027 25.4805 33.1895C26.1836 32.0762 26.7109 30.7188 27.0625 29.1172C27.4336 27.4961 27.6191 25.6406 27.6191 23.5508ZM66.5254 1.34375H76.8086V29.2051C76.8086 32.5254 76.1152 35.3379 74.7285 37.6426C73.3418 39.9277 71.3984 41.6562 68.8984 42.8281C66.3984 44 63.459 44.5859 60.0801 44.5859C56.7402 44.5859 53.8008 44 51.2617 42.8281C48.7422 41.6562 46.7695 39.9277 45.3438 37.6426C43.9375 35.3379 43.2344 32.5254 43.2344 29.2051V1.34375H53.5469V29.2051C53.5469 30.9629 53.8008 32.3984 54.3086 33.5117C54.8164 34.6055 55.5586 35.4062 56.5352 35.9141C57.5117 36.4219 58.6934 36.6758 60.0801 36.6758C61.4863 36.6758 62.668 36.4219 63.625 35.9141C64.582 35.4062 65.3047 34.6055 65.793 33.5117C66.2812 32.3984 66.5254 30.9629 66.5254 29.2051V1.34375ZM83.2832 1.34375H100.07C103.352 1.34375 106.203 1.83203 108.625 2.80859C111.047 3.78516 112.912 5.23047 114.221 7.14453C115.549 9.05859 116.213 11.4219 116.213 14.2344C116.213 16.6758 115.832 18.7168 115.07 20.3574C114.309 21.998 113.244 23.3555 111.877 24.4297C110.529 25.4844 108.957 26.3535 107.16 27.0371L103.791 28.9414H89.6992L89.6406 21.002H100.07C101.379 21.002 102.463 20.7676 103.322 20.2988C104.182 19.8301 104.826 19.166 105.256 18.3066C105.705 17.4277 105.93 16.3828 105.93 15.1719C105.93 13.9414 105.705 12.8867 105.256 12.0078C104.807 11.1289 104.143 10.4551 103.264 9.98633C102.404 9.51758 101.34 9.2832 100.07 9.2832H93.5664V44H83.2832V1.34375ZM106.633 44L97.1992 25.1328L108.098 25.0742L117.648 43.5605V44H106.633ZM156.262 1.34375V44H145.979V1.34375H156.262ZM169.094 1.34375V9.2832H133.439V1.34375H169.094ZM202.814 36.0898V44H180.08V36.0898H202.814ZM183.742 1.34375V44H173.459V1.34375H183.742ZM199.885 18.2773V25.9238H180.08V18.2773H199.885ZM202.902 1.34375V9.2832H180.08V1.34375H202.902ZM225.109 10.3086L214.709 44H203.664L219.338 1.34375H226.34L225.109 10.3086ZM233.723 44L223.293 10.3086L221.945 1.34375H229.035L244.797 44H233.723ZM233.312 28.0918V36.0312H211.428V28.0918H233.312ZM253.029 1.34375H261.408L270.93 31.0215L280.451 1.34375H288.83L274.328 44H267.531L253.029 1.34375ZM247.932 1.34375H256.604L258.215 34.0391V44H247.932V1.34375ZM285.256 1.34375H293.957V44H283.645V34.0391L285.256 1.34375Z" fill="#FFCC00"/>
</svg>
