<?xml version="1.0" standalone="no"?>
<!DOCTYPE svg PUBLIC "-//W3C//DTD SVG 20010904//EN"
 "http://www.w3.org/TR/2001/REC-SVG-20010904/DTD/svg10.dtd">
<svg version="1.0" xmlns="http://www.w3.org/2000/svg"
 width="696.000000pt" height="720.000000pt" viewBox="0 0 696.000000 720.000000"
 preserveAspectRatio="xMidYMid meet">

<g transform="translate(0.000000,720.000000) scale(0.100000,-0.100000)"
fill="#000000" stroke="none">
<path d="M3470 7025 c-58 -293 -185 -577 -414 -925 -211 -321 -484 -646 -851
-1014 -795 -796 -1572 -1357 -2030 -1467 l-70 -16 60 -12 c197 -38 488 -163
718 -308 404 -256 821 -624 1274 -1125 719 -795 1181 -1491 1298 -1953 l23
-89 12 59 c120 602 608 1318 1438 2109 768 732 1432 1195 1857 1297 l70 16
-60 12 c-557 111 -1244 605 -1992 1433 -718 795 -1181 1491 -1298 1953 l-23
89 -12 -59z"/>
</g>
</svg>
