<?xml version="1.0" standalone="no"?>
<!DOCTYPE svg PUBLIC "-//W3C//DTD SVG 20010904//EN"
 "http://www.w3.org/TR/2001/REC-SVG-20010904/DTD/svg10.dtd">
<svg version="1.0" xmlns="http://www.w3.org/2000/svg"
 width="1200.000000pt" height="1188.000000pt" viewBox="0 0 1200.000000 1188.000000"
 preserveAspectRatio="xMidYMid meet">

<g transform="translate(0.000000,1188.000000) scale(0.100000,-0.100000)"
fill="#000000" stroke="none">
<path d="M2927 11819 c-578 -60 -1114 -274 -1570 -626 -637 -493 -1078 -1225
-1236 -2055 -72 -378 -80 -849 -20 -1330 118 -957 500 -1805 1202 -2663 358
-436 748 -833 1677 -1705 824 -774 1232 -1176 1615 -1594 488 -533 916 -1074
1268 -1603 120 -180 134 -182 223 -40 178 284 433 646 658 935 529 679 1104
1287 2206 2331 935 886 1319 1276 1676 1706 683 821 1068 1595 1219 2450 204
1162 -18 2179 -659 3005 -99 128 -337 374 -466 482 -449 377 -964 607 -1555
695 -149 22 -589 25 -735 5 -504 -68 -953 -240 -1357 -519 -417 -288 -797
-719 -1030 -1169 -26 -52 -50 -94 -53 -94 -3 0 -31 49 -63 108 -327 610 -816
1088 -1412 1382 -291 144 -575 233 -890 280 -160 24 -549 35 -698 19z m-1959
-4781 l-3 -1203 -72 117 c-360 582 -578 1197 -662 1868 -58 454 -52 910 15
1280 96 529 346 1075 673 1471 l46 55 3 -1192 c1 -656 1 -1734 0 -2396z"/>
</g>
</svg>
