<?xml version="1.0" standalone="no"?>
<!DOCTYPE svg PUBLIC "-//W3C//DTD SVG 20010904//EN"
 "http://www.w3.org/TR/2001/REC-SVG-20010904/DTD/svg10.dtd">
<svg version="1.0" xmlns="http://www.w3.org/2000/svg"
 width="360.000000pt" height="540.000000pt" viewBox="0 0 360.000000 540.000000"
 preserveAspectRatio="xMidYMid meet">

<g transform="translate(0.000000,540.000000) scale(0.100000,-0.100000)"
fill="#000000" stroke="none">
<path d="M1583 5060 c-79 -28 -171 -80 -198 -111 -13 -16 -28 -51 -34 -79 -14
-66 -14 -205 0 -233 17 -32 61 -77 76 -77 16 0 16 0 -3 -46 -12 -28 -14 -54
-10 -95 7 -56 6 -57 -28 -86 -42 -34 -55 -65 -48 -115 4 -33 2 -38 -16 -38
-11 0 -37 -15 -56 -34 -42 -39 -46 -74 -16 -124 19 -31 19 -33 3 -39 -74 -26
-173 -67 -199 -83 l-32 -18 -11 56 c-6 30 -11 66 -11 78 0 38 -17 37 -76 -8
-123 -92 -239 -275 -334 -523 -92 -240 -121 -338 -155 -535 -19 -107 -37 -210
-41 -227 l-6 -33 77 0 c75 0 77 -1 71 -22 -22 -79 -28 -132 -23 -227 5 -130
37 -217 128 -359 33 -51 96 -167 140 -258 43 -91 99 -195 124 -230 24 -35 41
-64 36 -64 -15 0 -33 -175 -25 -250 8 -86 -6 -89 -26 -6 -17 71 -7 188 20 233
11 18 15 33 10 33 -5 0 -14 -8 -19 -17 -10 -17 -10 -17 -11 0 0 35 -23 11 -42
-44 -24 -66 -21 -193 5 -232 13 -20 15 -39 10 -91 -5 -62 -8 -66 -30 -66 -14
0 -37 13 -54 29 -38 38 -40 97 -6 137 l23 27 -48 111 c-27 61 -53 121 -59 134
l-9 24 -50 -42 c-53 -45 -127 -149 -171 -244 -50 -108 -64 -178 -63 -321 1
-116 4 -140 31 -221 27 -81 87 -194 104 -194 4 0 24 21 44 47 21 27 60 71 87
99 48 50 49 51 33 80 -8 16 -15 37 -15 47 0 48 52 87 115 87 31 0 35 -3 31
-22 -3 -13 -10 -60 -17 -106 -11 -76 -13 -83 -33 -80 -21 3 -21 0 -24 -165 -2
-132 0 -167 11 -167 7 0 42 63 77 141 79 172 75 159 56 159 -11 0 -16 9 -15
28 0 40 25 171 33 180 10 10 36 -27 43 -60 6 -32 11 -34 41 -12 15 11 22 25
22 50 0 29 3 34 24 34 14 0 39 12 56 26 l31 27 -42 43 c-34 34 -40 47 -31 56
15 15 16 63 2 89 -12 22 -30 25 -30 5 0 -22 -40 -66 -61 -66 -23 0 -26 32 -5
49 8 7 17 29 21 50 4 22 17 49 32 62 31 30 72 120 80 177 4 32 10 42 20 38 8
-4 19 -6 25 -6 5 0 1 -11 -10 -25 -43 -55 -52 -167 -16 -206 9 -10 19 -39 22
-64 4 -41 10 -50 48 -78 34 -25 43 -37 38 -52 -18 -62 -16 -75 25 -143 47 -79
50 -92 17 -92 -58 0 -146 -108 -146 -181 0 -106 51 -197 133 -235 51 -24 56
-24 357 -24 300 0 306 0 373 25 96 34 184 90 204 128 24 47 35 241 16 287 -18
45 -51 80 -75 80 -18 0 -18 1 -1 33 12 22 17 52 15 98 -1 65 0 68 40 108 38
40 40 44 36 91 -4 44 -3 50 14 50 10 0 35 15 55 34 30 27 37 40 36 69 -1 19
-9 46 -18 61 -17 25 -16 26 6 35 110 42 184 74 203 86 22 15 22 15 35 -65 8
-44 17 -82 21 -85 15 -9 117 79 178 153 152 186 314 593 372 935 30 179 38
260 15 155 -8 -37 -22 -67 -38 -84 -15 -14 -35 -49 -46 -78 -14 -38 -24 -50
-36 -48 -52 10 -95 -30 -75 -68 6 -11 17 -20 25 -20 18 0 18 4 -1 -94 -16 -78
-43 -149 -44 -115 0 19 -37 69 -51 69 -5 0 -9 -20 -9 -44 0 -49 -24 -87 -70
-111 -25 -13 -28 -20 -32 -82 -6 -83 -3 -93 32 -99 l27 -6 -19 -36 c-10 -20
-18 -57 -18 -84 0 -27 -7 -65 -15 -84 -8 -20 -14 -46 -13 -58 1 -12 -11 -39
-27 -59 l-30 -37 -9 32 c-4 18 -6 101 -3 183 4 131 9 168 41 290 74 280 159
490 264 652 l47 73 58 0 c31 0 57 5 57 10 0 6 -30 10 -69 10 l-69 0 14 48 c10
29 16 95 16 172 1 122 1 127 -35 214 -20 48 -58 123 -85 165 -75 117 -86 136
-150 277 -33 72 -83 165 -111 207 -29 43 -44 74 -35 70 9 -3 20 0 25 8 6 10 9
10 9 2 0 -7 6 -13 14 -13 43 0 68 220 32 288 -10 19 -19 32 -22 30 -2 -3 3
-19 12 -36 19 -39 20 -159 1 -221 -17 -54 -29 -33 -16 30 12 62 11 140 -2 178
-9 25 -8 40 5 71 9 22 16 56 16 75 0 30 3 35 23 35 26 0 60 -26 76 -57 18 -35
13 -69 -15 -103 l-27 -31 36 -77 c19 -42 45 -101 57 -129 13 -29 28 -53 35
-53 21 0 119 111 167 190 118 190 144 426 73 641 -26 78 -82 174 -102 174 -6
0 -37 -34 -71 -76 -33 -42 -71 -84 -83 -93 -20 -13 -21 -18 -11 -41 13 -29 16
-84 4 -101 -17 -24 -59 -44 -94 -44 -43 0 -42 -2 -28 90 21 136 19 131 39 120
18 -9 19 -1 26 151 5 114 4 164 -4 172 -7 7 -14 7 -20 1 -10 -12 -131 -274
-131 -285 0 -5 7 -9 15 -9 8 0 15 -2 15 -5 0 -19 -32 -201 -37 -205 -9 -9 -43
42 -43 66 0 13 -5 24 -10 24 -20 0 -60 -49 -60 -73 0 -19 -7 -26 -27 -31 -16
-3 -39 -14 -53 -25 l-25 -20 42 -43 c39 -41 41 -44 28 -68 -19 -34 -18 -54 4
-81 l18 -23 18 37 c11 23 27 40 42 43 35 9 39 -2 15 -45 -12 -21 -22 -48 -22
-58 0 -11 -15 -36 -32 -55 -37 -39 -78 -133 -78 -177 0 -34 -6 -40 -29 -34
-16 4 -16 8 6 50 30 60 31 147 3 183 -11 14 -20 41 -20 63 0 38 -11 55 -65 93
-28 21 -29 23 -16 61 12 36 11 44 -7 79 -12 21 -30 53 -41 69 -29 43 -27 61
10 69 75 15 129 93 129 187 0 110 -42 184 -126 224 l-53 25 -308 -1 c-274 0
-314 -3 -360 -19z m1167 -166 c-28 -104 -46 -134 -77 -134 -8 0 0 26 23 78 20
42 45 98 57 125 11 26 21 46 23 44 2 -2 -10 -52 -26 -113z m40 -33 l-5 -134
-27 24 -26 24 30 113 c17 62 31 111 32 110 1 -2 -1 -63 -4 -137z m-810 7 c15
-25 20 -51 20 -106 0 -49 6 -84 17 -105 11 -21 19 -71 24 -147 4 -63 12 -132
18 -152 15 -48 2 -75 -71 -146 -95 -94 -233 -142 -321 -113 -48 16 -100 76
-126 145 -26 69 -26 80 -3 70 9 -4 28 -8 42 -8 14 0 31 -6 38 -13 18 -18 77
-16 92 2 11 13 14 13 27 0 22 -22 61 -18 89 10 14 14 34 25 44 25 11 0 20 7
20 15 0 18 -60 21 -77 4 -9 -9 -18 -4 -38 20 -19 22 -39 33 -68 38 l-42 7 33
8 c25 7 32 14 32 33 0 14 -4 25 -9 25 -5 0 -7 -9 -4 -20 4 -15 0 -20 -14 -20
-10 0 -29 -7 -41 -16 -22 -15 -25 -15 -47 6 -17 16 -22 27 -16 39 13 25 51
182 51 211 0 34 -36 73 -61 67 -28 -8 -23 5 19 45 60 59 189 106 295 107 54 1
58 -1 77 -31z m1070 -48 c88 -123 124 -360 84 -543 -28 -129 -131 -307 -218
-379 -33 -27 -37 -28 -43 -11 -3 10 -27 66 -53 125 -47 106 -47 107 -27 126
11 11 21 39 24 64 4 37 1 49 -21 75 -15 18 -42 37 -60 44 l-32 12 8 61 c15
110 13 106 62 106 37 0 51 6 80 34 40 37 45 64 21 110 -16 29 -15 30 22 65 21
20 56 60 78 89 21 28 42 52 46 52 4 0 17 -13 29 -30z m-312 -72 c7 -9 2 -72
-19 -208 -16 -107 -29 -201 -29 -209 0 -11 -3 -11 -15 -1 -8 7 -24 10 -35 7
-16 -4 -19 -1 -15 16 5 23 26 140 51 292 19 112 20 115 37 115 8 0 19 -6 25
-12z m-1108 -44 c6 -14 10 -33 10 -42 0 -12 -4 -11 -21 7 -16 17 -30 22 -55
19 -39 -5 -41 -2 -17 24 25 28 71 24 83 -8z m-26 -40 c9 -8 16 -16 16 -17 0
-1 -23 0 -52 2 -47 3 -50 4 -33 17 25 18 50 18 69 -2z m-61 -49 c4 -25 4 -25
-15 -9 -14 14 -16 19 -6 26 7 4 14 8 14 8 1 0 4 -11 7 -25z m77 6 c0 -9 -22
-31 -31 -31 -3 0 -4 11 -2 24 3 16 10 23 19 19 8 -3 14 -8 14 -12z m999 -82
c19 -16 20 -22 11 -75 -18 -102 -19 -104 -43 -104 -24 0 -61 -32 -69 -60 -4
-11 -7 -10 -17 8 -10 18 -9 29 4 55 16 33 15 34 -20 72 -19 22 -35 42 -35 46
0 12 24 27 60 36 30 8 35 13 36 43 1 20 10 39 20 47 17 13 20 11 26 -19 3 -18
16 -40 27 -49z m-1039 44 c39 5 40 4 34 -21 -4 -15 -13 -47 -21 -71 -14 -41
-13 -44 8 -67 l22 -24 -21 0 c-12 0 -32 -11 -44 -25 -20 -22 -26 -23 -41 -12
-15 10 -18 30 -19 112 -2 108 4 134 28 114 8 -7 30 -9 54 -6z m1050 -266 c0
-2 -10 -12 -22 -23 l-23 -19 19 23 c18 21 26 27 26 19z m33 -16 c-6 -23 -83
-87 -83 -69 0 13 69 88 81 88 4 0 5 -9 2 -19z m27 -17 c0 -20 -57 -74 -78 -74
-10 0 1 16 29 44 52 52 49 50 49 30z m-15 -73 c-3 -6 -11 -8 -17 -5 -6 4 -5 9
3 15 16 10 23 4 14 -10z m-635 -33 c41 -68 9 -185 -67 -243 -78 -59 -132 -57
-212 10 -36 31 -115 134 -108 141 2 3 16 0 31 -6 62 -23 191 19 286 93 25 20
46 36 48 36 1 1 11 -14 22 -31z m564 -35 c-8 -96 -36 -253 -46 -253 -8 0 -6
21 13 150 11 73 29 160 34 160 2 0 1 -26 -1 -57z m75 -89 c1 -44 -20 -146 -35
-167 -18 -28 -24 -7 -12 44 6 24 10 94 10 154 l0 110 18 -55 c10 -30 19 -69
19 -86z m-134 64 c-12 -35 -26 -90 -29 -123 -9 -73 -15 -97 -25 -91 -17 11 11
141 50 234 27 63 30 51 4 -20z m-15 26 c-6 -14 -15 -34 -21 -46 -6 -11 -17
-47 -25 -81 l-14 -62 4 50 c2 28 15 76 29 108 26 57 45 80 27 31z m97 -124
c-7 -96 -25 -162 -38 -138 -5 9 -2 45 6 84 8 38 15 96 15 129 1 51 3 56 12 35
6 -14 8 -61 5 -110z m-503 88 c7 -13 26 -50 41 -84 l26 -61 -47 -77 c-25 -43
-52 -80 -60 -83 -14 -5 -124 75 -124 92 0 5 18 26 39 47 36 34 57 78 75 161 8
33 30 35 50 5z m428 -95 c-16 -119 -38 -158 -27 -50 7 61 33 173 40 166 2 -2
-4 -55 -13 -116z m-892 32 c40 -62 96 -121 136 -143 16 -9 15 -12 -16 -38 -19
-16 -48 -41 -64 -55 l-29 -25 -37 40 c-44 49 -130 174 -130 189 0 12 80 97 91
97 4 0 26 -29 49 -65z m-660 -111 c20 -136 -4 -356 -66 -596 -22 -86 -108
-335 -140 -403 -40 -88 -123 -225 -135 -225 -6 0 -2 15 9 33 74 124 93 160
122 227 54 123 138 389 166 526 21 103 27 158 28 274 1 80 -3 172 -8 204 -5
38 -5 57 1 53 5 -3 15 -45 23 -93z m-30 -11 c25 -177 -9 -415 -100 -695 -65
-203 -98 -281 -172 -410 -59 -103 -63 -108 -95 -108 l-33 0 37 57 c56 88 147
286 188 408 99 299 137 526 117 700 -11 97 -11 101 9 118 12 9 25 17 29 17 4
0 14 -39 20 -87z m-74 -10 c13 -76 7 -250 -10 -350 -18 -99 -81 -332 -117
-428 -68 -186 -205 -443 -224 -423 -3 3 12 32 33 64 55 82 132 240 175 359 50
135 114 379 128 483 12 87 8 292 -6 325 -4 10 -3 17 3 17 6 0 14 -21 18 -47z
m1574 17 c0 -11 -4 -20 -9 -20 -5 0 -7 9 -4 20 3 11 7 20 9 20 2 0 4 -9 4 -20z
m-1596 -46 c19 -139 -2 -303 -68 -539 -68 -246 -146 -426 -248 -577 l-39 -58
-58 0 -58 0 15 73 c10 51 23 82 43 104 15 18 36 55 46 83 14 40 21 49 36 44
10 -3 32 0 48 6 23 10 29 19 29 42 0 21 -6 31 -20 35 -11 3 -20 10 -20 17 0
29 31 170 42 189 l13 22 3 -21 c2 -12 13 -31 26 -43 l23 -22 7 48 c7 54 17 69
62 101 29 19 32 28 38 92 8 77 -1 100 -35 100 -18 0 -19 2 -4 30 8 16 15 47
15 70 0 22 9 68 20 101 11 33 18 64 14 70 -6 10 41 79 55 79 5 0 11 -21 15
-46z m1003 -65 c12 -54 41 -263 69 -494 14 -125 18 -371 7 -487 l-6 -68 -77 0
-78 0 -6 138 c-19 424 -43 681 -77 822 l-11 45 63 56 c79 70 98 68 116 -12z
m89 50 c31 -35 104 -81 119 -75 13 5 20 -16 39 -119 17 -87 25 -511 14 -702
l-12 -203 -66 0 -65 0 -1 298 c0 257 -3 314 -22 422 -11 69 -26 161 -32 206
-6 45 -15 96 -20 115 -16 53 -13 79 8 79 11 0 27 -10 38 -21z m-53 -76 c9 -49
21 -124 27 -168 7 -44 18 -118 27 -165 17 -93 30 -565 19 -644 -15 -98 -21
-36 -21 211 0 226 -3 283 -28 463 -15 113 -34 243 -42 290 -17 99 -17 100 -7
100 4 0 15 -39 25 -87z m667 57 c0 -32 -46 -279 -53 -286 -4 -5 -42 10 -55 22
-7 6 42 279 51 285 5 4 20 6 33 5 19 -1 24 -7 24 -26z m-1797 -48 c-9 -20 -19
-70 -23 -111 -7 -70 -10 -76 -48 -112 -23 -21 -44 -49 -48 -64 -10 -39 2 -41
21 -2 19 40 54 62 84 52 21 -6 22 -11 15 -78 -4 -40 -12 -74 -18 -76 -31 -12
-76 -71 -82 -110 -6 -37 -8 -39 -20 -24 -7 10 -14 26 -14 35 0 24 -21 34 -31
15 -8 -13 -15 -14 -39 -5 -17 5 -30 12 -30 14 0 2 21 61 46 131 66 183 173
391 195 378 4 -3 1 -22 -8 -43z m1674 -177 c11 -31 -3 -37 -32 -13 -32 28 -28
56 6 37 11 -6 23 -17 26 -24z m16 -61 c29 -14 64 -38 79 -52 15 -14 31 -22 35
-18 5 4 -4 18 -19 31 -19 16 -25 29 -21 44 l5 21 28 -20 c59 -42 74 -82 80
-221 5 -110 8 -132 27 -157 21 -28 21 -30 4 -58 -19 -31 -86 -94 -101 -94 -4
0 -15 -3 -24 -6 -10 -4 -20 5 -31 25 -9 18 -23 31 -35 31 -32 0 -117 117 -106
146 3 8 -1 26 -10 39 -21 33 -15 69 14 73 27 4 28 10 1 38 -23 24 -20 74 4 74
6 0 18 4 26 9 11 7 6 16 -23 41 -34 30 -45 58 -29 73 12 13 44 7 96 -19z
m-1895 -250 c24 -7 31 -34 8 -34 -25 0 -46 12 -46 26 0 16 5 16 38 8z m-10
-40 c12 -4 22 -13 22 -21 0 -12 -7 -14 -32 -9 -37 7 -42 11 -33 25 7 13 12 13
43 5z m-10 -40 c21 -6 32 -34 13 -34 -20 0 -61 20 -61 30 0 11 15 13 48 4z m0
-40 c24 -7 24 -14 6 -76 -4 -13 3 -21 21 -28 20 -7 26 -16 23 -33 -3 -19 -9
-22 -46 -23 -44 -1 -44 -1 -67 -59 -26 -62 -55 -102 -55 -75 0 28 31 195 46
248 15 54 23 59 72 46z m455 -52 c56 -31 66 -39 61 -57 -4 -11 -7 -21 -8 -22
-1 -1 -32 14 -70 33 -38 19 -77 34 -87 34 -21 0 -22 4 -13 38 8 28 21 25 117
-26z m1407 -239 l-35 -193 -37 0 c-24 0 -38 5 -38 13 0 6 18 108 40 226 22
117 40 218 40 223 0 5 15 -10 33 -33 l32 -43 -35 -193z m340 235 c17 -12 30
-25 30 -29 0 -16 -83 -111 -118 -133 -59 -39 -86 -42 -100 -11 -18 39 -15 52
13 59 32 8 88 58 115 102 12 19 24 34 26 34 3 0 18 -10 34 -22z m-1765 -55
c45 -25 72 -50 63 -59 -3 -2 -36 11 -74 31 -38 19 -77 35 -86 35 -10 0 -18 7
-18 15 0 22 58 11 115 -22z m130 -10 c10 -62 41 -152 84 -251 23 -51 41 -97
41 -102 0 -6 -47 -10 -118 -10 l-119 0 -18 33 c-16 30 -16 36 -2 63 8 16 33
87 56 157 22 71 43 132 46 138 12 19 24 8 30 -28z m1685 18 c0 -5 -20 -33 -45
-63 -44 -54 -126 -108 -161 -108 -11 1 -2 7 19 14 51 19 101 59 145 117 38 51
42 55 42 40z m-1839 -43 c53 -27 65 -38 67 -60 3 -27 -11 -38 -23 -19 -3 5
-22 15 -42 22 -20 6 -56 20 -80 31 -38 17 -42 21 -33 39 15 27 37 24 111 -13z
m1603 -178 c2 -36 10 -86 19 -112 l16 -48 -80 0 -79 0 6 43 c7 46 28 149 44
212 5 22 12 54 16 70 6 28 7 26 30 -35 14 -36 26 -94 28 -130z m-279 -122 c4
-4 5 -14 2 -23 -6 -13 -66 -15 -522 -15 -337 0 -515 3 -515 10 0 6 8 10 18 11
9 0 49 7 87 14 53 11 172 13 497 12 234 -1 430 -5 433 -9z m145 -29 c0 -5 -9
-9 -20 -9 -11 0 -20 6 -20 14 0 9 7 12 20 9 11 -3 20 -9 20 -14z m-1344 -91
c-3 -35 -17 -103 -30 -153 -14 -49 -26 -101 -28 -115 -5 -41 -51 95 -55 165
-3 33 -8 71 -13 85 -5 14 -11 37 -14 53 l-6 27 76 0 77 0 -7 -62z m59 52 c-3
-5 -13 -10 -21 -10 -8 0 -14 5 -14 10 0 6 9 10 21 10 11 0 17 -4 14 -10z m91
-7 c-2 -10 -22 -114 -42 -230 -21 -117 -41 -213 -44 -212 -3 0 -18 16 -33 34
l-28 34 36 190 c19 104 35 192 35 195 0 3 18 6 41 6 34 0 40 -3 35 -17z m1048
7 c-5 -5 -52 -16 -104 -25 -73 -11 -178 -15 -445 -15 -415 0 -485 5 -485 31 0
18 20 19 522 19 332 0 519 -3 512 -10z m260 -12 c9 -12 16 -28 16 -35 0 -30
-114 -343 -123 -340 -6 2 -17 33 -23 70 -7 37 -28 101 -47 144 -51 114 -67
154 -67 169 0 11 24 14 114 14 107 0 116 -1 130 -22z m346 16 c0 -3 -17 -36
-39 -72 -68 -117 -107 -204 -154 -337 -133 -378 -169 -642 -121 -877 3 -16 1
-28 -4 -28 -5 0 -15 34 -22 75 -48 282 88 841 288 1182 32 55 52 76 52 57z
m80 0 c0 -3 -13 -24 -29 -47 -78 -115 -172 -338 -236 -564 -63 -219 -79 -336
-72 -509 6 -132 5 -143 -13 -159 -11 -10 -22 -16 -25 -13 -13 12 -25 121 -25
218 0 192 51 428 152 700 56 150 67 174 139 295 45 76 53 85 79 85 17 0 30 -3
30 -6z m-1 -56 c-191 -293 -343 -832 -309 -1093 13 -97 13 -102 -2 -87 -17 17
-17 304 1 392 19 101 88 342 127 448 63 168 188 402 214 402 5 0 -9 -28 -31
-62z m-1425 -195 c-5 -153 -3 -234 10 -357 9 -88 19 -162 21 -165 2 -4 11 -63
20 -131 10 -69 23 -154 31 -190 14 -68 7 -94 -20 -75 -7 6 -41 31 -76 57 -34
26 -68 44 -75 42 -15 -6 -28 61 -46 235 -12 112 -7 572 7 719 l6 62 65 0 64 0
-7 -197z m38 -38 c-3 -215 0 -257 27 -473 17 -130 37 -273 45 -317 8 -44 12
-82 10 -85 -11 -11 -22 30 -43 163 -12 78 -26 169 -32 201 -19 107 -39 319
-39 421 0 163 12 325 24 325 8 0 10 -69 8 -235z m181 83 c4 -83 7 -192 7 -242
0 -93 51 -514 69 -575 6 -19 8 -37 5 -42 -12 -20 -126 -99 -143 -99 -23 0 -25
6 -46 140 -53 352 -58 408 -63 662 -2 142 -1 269 2 283 6 24 9 25 85 25 l78 0
6 -152z m1327 -83 c-34 -196 -38 -205 -98 -189 -20 6 -22 10 -16 54 6 42 4 48
-15 53 -29 7 -28 45 2 56 12 5 32 5 44 0 19 -7 23 -3 37 39 17 51 54 117 62
110 2 -3 -5 -58 -16 -123z m-2130 86 c0 -5 -17 -12 -37 -16 -29 -5 -54 -24
-110 -81 -81 -81 -99 -85 -28 -6 48 53 97 88 143 102 15 5 28 9 30 9 1 1 2 -3
2 -8z m18 -54 c16 -45 16 -45 -16 -52 -31 -6 -93 -62 -119 -106 -21 -36 -25
-36 -64 -1 l-30 27 56 63 c55 60 113 101 145 102 9 0 21 -15 28 -33z m1710
-63 c2 -1 1 -12 -3 -23 -9 -29 -34 -26 -110 11 -65 32 -79 47 -69 72 4 10 24
6 92 -22 48 -20 89 -37 90 -38z m-111 -28 c29 -14 61 -26 73 -26 11 0 20 -4
20 -10 0 -5 -17 -10 -37 -10 -51 1 -137 50 -142 81 -3 23 -2 23 15 8 11 -9 42
-28 71 -43z m-1565 4 c9 -17 25 -30 35 -30 30 0 110 -109 112 -151 0 -13 3
-43 7 -66 6 -39 4 -43 -15 -43 -26 0 -26 -4 0 -39 25 -35 14 -65 -27 -75 l-26
-7 35 -32 c34 -30 41 -44 38 -74 -3 -34 -104 3 -168 61 -45 40 -67 37 -27 -5
16 -17 24 -35 22 -50 -3 -23 -3 -23 -39 9 -56 49 -67 82 -77 230 -7 105 -12
136 -27 152 -17 19 -17 21 10 60 35 50 84 87 120 89 6 1 18 -13 27 -29z m1548
-38 c36 -18 73 -32 83 -32 14 0 17 -5 12 -22 -4 -13 -10 -27 -14 -31 -9 -9
-171 70 -171 83 0 16 12 41 19 38 3 -2 35 -18 71 -36z m448 -108 c12 -4 22
-13 22 -21 0 -11 -6 -14 -22 -9 -13 3 -29 6 -35 6 -7 0 -13 7 -13 15 0 16 12
18 48 9z m-10 -40 c21 -6 32 -34 13 -34 -23 0 -62 21 -56 30 7 12 12 12 43 4z
m-98 -76 c0 -22 16 -24 28 -3 6 13 14 13 39 4 l32 -11 -40 -111 c-46 -131
-158 -364 -188 -391 -25 -23 -27 -9 -6 41 8 19 15 52 15 73 0 71 12 102 55
144 44 42 63 80 46 90 -5 3 -14 -7 -19 -23 -13 -37 -54 -65 -82 -56 -19 6 -20
13 -17 77 3 65 6 71 34 89 38 24 58 53 68 99 7 32 8 33 21 15 8 -10 14 -27 14
-37z m110 22 c0 -16 -18 -20 -44 -10 -39 14 -24 42 15 28 16 -5 29 -14 29 -18z
m-1956 -272 c19 -8 24 -17 21 -32 -3 -12 -14 -75 -25 -140 -11 -66 -25 -123
-31 -127 -19 -12 -54 7 -52 27 5 59 49 284 55 284 4 0 18 -5 32 -12z m84 -67
c3 -19 1 -20 -22 -10 -18 8 -26 20 -26 37 0 23 1 24 23 10 12 -9 23 -25 25
-37z m836 -285 c31 -46 56 -88 56 -94 0 -5 -22 -29 -49 -52 l-50 -41 -50 75
c-28 41 -68 87 -88 102 -21 16 -42 32 -48 36 -6 5 14 30 50 62 l60 54 31 -30
c17 -16 57 -67 88 -112z m-446 84 c28 -21 53 -44 57 -49 3 -6 -12 -28 -33 -48
-38 -37 -82 -130 -82 -174 0 -15 -5 -19 -16 -15 -9 3 -19 6 -24 6 -4 0 -18 26
-31 58 -12 31 -28 65 -35 75 -10 16 -7 28 24 80 37 64 70 107 83 107 4 0 30
-18 57 -40z m-801 -169 c23 -51 43 -98 43 -103 0 -5 -9 -18 -20 -30 -14 -16
-20 -36 -20 -71 0 -42 4 -53 31 -78 17 -16 36 -29 43 -29 34 -1 38 -15 26 -99
l-12 -81 -42 0 c-52 0 -103 -31 -112 -67 -4 -15 -2 -45 4 -67 10 -40 10 -42
-27 -81 -20 -22 -54 -61 -75 -88 -20 -26 -41 -47 -45 -47 -13 0 -69 104 -90
166 -50 152 -49 329 4 485 31 92 117 229 180 286 49 45 49 45 59 21 5 -12 29
-65 53 -117z m138 62 c-9 -96 -8 -148 6 -191 14 -44 5 -52 -15 -13 -27 52 -31
141 -10 216 10 36 21 65 23 65 2 0 0 -35 -4 -77z m95 45 c0 -13 -7 -59 -15
-102 -8 -44 -15 -89 -14 -100 5 -53 -5 -65 -11 -16 -7 51 2 180 16 222 8 25
24 22 24 -4z m16 -141 c-9 -55 -19 -103 -23 -106 -10 -10 4 162 18 214 12 43
14 46 17 22 2 -16 -4 -74 -12 -130z m29 -11 c-8 -39 -20 -78 -26 -86 -9 -13
-10 -13 -6 2 3 9 11 54 17 100 6 45 14 99 18 118 6 34 7 34 10 -14 2 -27 -4
-81 -13 -120z m735 143 c19 -12 46 -31 59 -43 22 -20 106 -136 98 -136 -2 0
-18 5 -35 11 -65 23 -205 -24 -291 -97 -46 -40 -45 -40 -76 18 -25 46 8 161
61 209 67 61 125 73 184 38z m-683 -49 c-6 -52 -63 -227 -72 -218 -2 2 7 35
21 73 13 39 24 86 24 106 0 37 17 99 27 99 3 0 3 -27 0 -60z m23 -23 c-9 -59
-60 -197 -74 -197 -3 0 8 32 24 71 16 39 32 94 36 122 6 58 12 82 19 76 2 -3
0 -35 -5 -72z m815 -126 c22 -10 48 -27 57 -37 17 -20 60 -109 73 -153 6 -21
5 -23 -11 -16 -11 5 -32 9 -47 10 -15 1 -33 7 -39 13 -17 17 -68 15 -88 -3
-15 -14 -18 -14 -30 0 -19 23 -68 19 -93 -9 -12 -13 -30 -25 -40 -27 -10 -2
-19 -8 -20 -14 -3 -14 63 -19 76 -6 8 8 17 4 32 -15 13 -16 40 -31 70 -39 34
-9 42 -14 24 -14 -33 -1 -54 -25 -43 -48 7 -16 8 -15 11 5 3 13 12 22 22 22 9
0 26 6 36 14 27 20 70 -7 60 -38 -31 -101 -51 -214 -42 -239 11 -32 38 -50 63
-40 13 5 10 -3 -11 -31 -34 -44 -142 -99 -230 -116 -139 -27 -182 2 -178 120
2 51 -3 80 -17 112 -14 32 -20 65 -20 127 0 47 -7 111 -16 142 -20 72 -15 94
36 151 106 121 262 176 365 129z m-953 -83 c-8 -8 -9 -4 -5 13 4 13 8 18 11
10 2 -7 -1 -18 -6 -23z m-56 -23 c-7 -18 -2 -19 23 -3 23 14 51 4 51 -17 0
-17 -69 -89 -77 -81 -11 11 11 48 38 61 16 9 29 20 29 27 0 15 -63 -35 -78
-63 -13 -23 -13 -22 -7 11 3 19 6 45 5 58 0 12 5 22 11 22 6 0 9 -7 5 -15z
m54 -90 c-7 -8 -17 -15 -23 -15 -5 0 -2 9 8 20 21 23 35 19 15 -5z m110 -23
c0 -15 -7 -36 -15 -47 -14 -18 -12 -22 27 -62 41 -41 41 -43 23 -58 -11 -8
-33 -18 -50 -23 -23 -6 -31 -15 -33 -38 -6 -53 -35 -71 -46 -29 -3 13 -15 33
-27 44 -19 18 -20 23 -8 99 12 80 13 81 43 84 22 2 37 12 51 34 23 36 35 35
35 -4z m-130 -22 c0 -8 -7 -53 -16 -100 -8 -47 -23 -131 -33 -188 -20 -113
-40 -151 -61 -113 -8 17 -5 61 15 204 14 100 28 189 31 198 6 21 64 20 64 -1z
m1124 -42 c8 -38 8 -171 0 -191 -5 -13 -9 -13 -34 -1 -20 11 -35 12 -54 4 -27
-10 -27 -10 -20 28 4 20 13 52 20 70 13 31 12 35 -11 56 l-25 23 29 6 c17 4
35 15 40 26 16 28 48 16 55 -21z m-94 -228 c-9 -30 -8 -30 31 -30 46 0 52 -16
8 -25 -22 -5 -36 -2 -50 11 -10 9 -19 12 -19 7 0 -21 30 -35 64 -31 30 3 33 2
25 -14 -12 -22 -57 -34 -78 -21 -22 14 -27 71 -7 79 9 3 13 10 10 15 -5 8 12
39 22 39 1 0 -1 -13 -6 -30z m80 -1 c0 -18 -18 -9 -23 12 -4 16 -3 18 9 8 8
-6 14 -15 14 -20z m-1224 -143 c3 -7 -8 -64 -25 -127 l-29 -114 -1 85 c0 47 2
108 5 137 6 48 8 51 26 42 10 -6 21 -16 24 -23z m69 -16 c-10 -32 -106 -227
-101 -205 47 192 60 225 93 225 10 0 12 -6 8 -20z"/>
<path d="M1753 4730 c-16 -6 -23 -18 -23 -35 0 -14 4 -25 8 -25 5 0 8 10 8 22
-1 19 6 23 44 30 56 10 83 4 127 -29 18 -14 36 -24 38 -21 2 2 -14 19 -37 36
-35 27 -50 32 -92 31 -28 0 -61 -4 -73 -9z"/>
<path d="M1772 4654 c-17 -11 -21 -21 -16 -37 18 -59 73 -73 144 -37 43 22 50
37 23 47 -10 4 -29 15 -42 25 -29 22 -79 23 -109 2z m99 -14 l24 -20 -31 11
c-21 7 -43 7 -65 0 -19 -5 -27 -10 -18 -10 10 -1 19 -12 22 -28 l5 -28 -25 30
-25 29 22 18 c29 23 62 23 91 -2z m39 -27 c0 -5 -44 -43 -50 -43 -4 0 -5 10
-3 23 3 15 11 22 29 22 13 0 24 -1 24 -2z m-86 -19 c3 -8 2 -12 -4 -9 -6 3
-10 10 -10 16 0 14 7 11 14 -7z"/>
<path d="M1768 3745 c-10 -22 -9 -29 10 -47 18 -19 25 -20 47 -10 16 8 25 20
25 35 0 50 -62 66 -82 22z m70 -12 c4 -30 -31 -49 -52 -27 -12 12 -13 20 -5
35 14 27 53 22 57 -8z"/>
<path d="M1802 3618 c-34 -34 6 -90 48 -68 35 19 20 80 -20 80 -9 0 -21 -5
-28 -12z m56 -22 c5 -26 -26 -50 -45 -35 -14 12 -17 41 -6 53 13 13 48 1 51
-18z"/>
<path d="M1822 3468 c-27 -27 -7 -78 29 -78 21 0 49 26 49 45 0 35 -53 58 -78
33z m57 -17 c13 -24 -9 -57 -33 -48 -23 9 -31 34 -16 52 17 20 37 19 49 -4z"/>
<path d="M1835 3300 c-37 -41 24 -97 63 -58 18 18 14 56 -7 68 -27 14 -35 13
-56 -10z m63 -33 c-4 -30 -43 -35 -57 -8 -8 15 -7 23 5 35 21 22 56 3 52 -27z"/>
<path d="M1830 3140 c-15 -28 4 -60 34 -60 32 0 50 24 42 55 -5 20 -13 25 -36
25 -19 0 -33 -7 -40 -20z m65 -20 c0 -18 -6 -26 -23 -28 -24 -4 -38 18 -28 44
3 9 15 14 28 12 17 -2 23 -10 23 -28z"/>
<path d="M1848 3009 c-21 -12 -24 -49 -6 -67 39 -39 100 17 63 58 -20 22 -32
24 -57 9z m46 -15 c22 -21 3 -56 -27 -52 -28 4 -35 38 -11 55 22 16 19 16 38
-3z"/>
<path d="M1842 2868 c-34 -34 6 -90 48 -68 35 19 20 80 -20 80 -9 0 -21 -5
-28 -12z m56 -22 c5 -26 -26 -50 -45 -35 -14 12 -17 41 -6 53 13 13 48 1 51
-18z"/>
<path d="M1992 3768 c-21 -21 -14 -57 13 -70 22 -10 29 -9 47 10 19 18 20 25
10 47 -13 27 -49 34 -70 13z m58 -17 c14 -28 -13 -55 -41 -41 -19 10 -26 40
-12 53 13 14 43 7 53 -12z"/>
<path d="M2014 3616 c-3 -8 -4 -25 -2 -38 2 -19 9 -23 38 -23 33 0 35 2 35 35
0 32 -3 35 -33 38 -21 2 -34 -2 -38 -12z m61 -26 c0 -18 -6 -26 -23 -28 -13
-2 -25 3 -28 12 -10 26 4 48 28 44 17 -2 23 -10 23 -28z"/>
<path d="M2048 3469 c-11 -6 -18 -22 -18 -39 0 -23 5 -31 25 -36 15 -4 32 -1
40 6 21 18 19 57 -4 70 -23 12 -22 12 -43 -1z m50 -42 c-2 -16 -10 -22 -28
-22 -28 0 -39 27 -20 50 18 21 52 1 48 -28z"/>
<path d="M2045 3290 c-37 -41 24 -97 63 -58 18 18 14 56 -7 68 -27 14 -35 13
-56 -10z m63 -33 c-4 -30 -43 -35 -57 -8 -8 15 -7 23 5 35 21 22 56 3 52 -27z"/>
<path d="M2042 3148 c-28 -28 -3 -72 39 -66 30 4 47 33 33 56 -14 21 -55 27
-72 10z m62 -13 c9 -24 -4 -45 -29 -45 -25 0 -38 21 -29 45 4 8 16 15 29 15
13 0 25 -7 29 -15z"/>
<path d="M2035 3010 c-37 -41 24 -97 63 -58 18 18 14 56 -7 68 -27 14 -35 13
-56 -10z m63 -33 c-4 -30 -43 -35 -57 -8 -8 15 -7 23 5 35 21 22 56 3 52 -27z"/>
<path d="M2032 2868 c-27 -27 -6 -68 35 -68 29 0 48 33 33 60 -12 22 -49 27
-68 8z m53 -28 c0 -18 -6 -26 -23 -28 -24 -4 -38 18 -28 44 3 9 15 14 28 12
17 -2 23 -10 23 -28z"/>
<path d="M1472 2594 c-38 -26 -22 -74 24 -74 45 0 58 50 19 76 -18 12 -24 11
-43 -2z m52 -20 c8 -21 -11 -44 -36 -44 -21 0 -33 22 -24 45 7 20 52 19 60 -1z"/>
<path d="M1450 2441 c-20 -39 22 -82 60 -61 22 12 27 49 8 68 -18 18 -56 14
-68 -7z m65 -21 c0 -18 -6 -26 -23 -28 -24 -4 -38 18 -28 44 3 9 15 14 28 12
17 -2 23 -10 23 -28z"/>
<path d="M1462 2319 c-19 -7 -23 -15 -20 -41 3 -29 7 -33 35 -36 38 -4 60 25
44 57 -14 24 -31 30 -59 20z m43 -39 c0 -18 -6 -26 -23 -28 -13 -2 -25 3 -28
12 -10 26 4 48 28 44 17 -2 23 -10 23 -28z"/>
<path d="M1440 2161 c-20 -39 22 -82 60 -61 22 12 27 49 8 68 -18 18 -56 14
-68 -7z m65 -21 c0 -18 -6 -26 -23 -28 -24 -4 -38 18 -28 44 3 9 15 14 28 12
17 -2 23 -10 23 -28z"/>
<path d="M1452 1998 c-29 -29 7 -86 47 -73 26 8 38 50 21 70 -15 18 -51 20
-68 3z m63 -18 c8 -27 -1 -40 -30 -40 -27 0 -41 26 -24 46 17 20 47 17 54 -6z"/>
<path d="M1482 1844 c-38 -26 -22 -74 24 -74 45 0 58 50 19 76 -18 12 -24 11
-43 -2z m53 -34 c0 -29 -34 -40 -54 -17 -18 23 -2 49 28 45 20 -2 26 -8 26
-28z"/>
<path d="M1506 1694 c-19 -18 -21 -45 -4 -62 39 -39 100 17 63 58 -22 24 -38
25 -59 4z m59 -22 c8 -20 -19 -47 -39 -39 -26 10 -32 38 -12 53 21 15 42 9 51
-14z"/>
<path d="M1655 2590 c-37 -41 24 -97 63 -58 17 17 15 44 -4 62 -21 21 -37 20
-59 -4z m65 -24 c0 -23 -30 -41 -48 -30 -23 15 -25 29 -7 48 12 12 21 13 36 6
10 -6 19 -17 19 -24z"/>
<path d="M1650 2455 c-17 -20 -5 -62 21 -70 24 -8 59 19 59 45 0 37 -55 55
-80 25z m59 -9 c17 -20 2 -46 -25 -46 -29 0 -41 24 -24 45 16 19 34 19 49 1z"/>
<path d="M1660 2310 c-23 -23 -24 -30 -7 -54 9 -12 23 -17 42 -14 27 3 30 7
30 37 0 44 -35 61 -65 31z m55 -30 c0 -18 -6 -26 -23 -28 -13 -2 -25 3 -28 12
-10 26 4 48 28 44 17 -2 23 -10 23 -28z"/>
<path d="M1650 2151 c-20 -39 22 -82 60 -61 22 12 27 49 8 68 -18 18 -56 14
-68 -7z m65 -21 c0 -18 -6 -26 -23 -28 -24 -4 -38 18 -28 44 3 9 15 14 28 12
17 -2 23 -10 23 -28z"/>
<path d="M1672 1998 c-27 -27 -7 -78 29 -78 21 0 49 26 49 45 0 35 -53 58 -78
33z m57 -12 c16 -19 -4 -59 -26 -54 -26 5 -39 34 -24 52 17 20 35 20 50 2z"/>
<path d="M1695 1840 c-37 -41 24 -97 63 -58 17 17 15 44 -4 62 -21 21 -37 20
-59 -4z m65 -24 c0 -23 -30 -41 -48 -30 -23 15 -25 29 -7 48 12 12 21 13 36 6
10 -6 19 -17 19 -24z"/>
<path d="M1715 1696 c-8 -13 -13 -31 -9 -40 8 -22 50 -31 69 -16 21 18 19 57
-4 70 -29 15 -39 13 -56 -14z m55 -1 c19 -23 8 -50 -20 -50 -19 0 -26 6 -28
24 -5 35 26 53 48 26z"/>
<path d="M1648 818 c-44 -23 -47 -34 -15 -44 12 -4 33 -15 46 -25 32 -25 86
-24 111 1 19 19 19 23 6 49 -9 16 -23 31 -31 35 -29 11 -79 4 -117 -16z m52
-3 c-6 -8 -9 -19 -5 -25 3 -5 0 -10 -7 -11 -7 0 -2 -5 11 -10 13 -5 40 -7 60
-4 34 6 35 5 17 -9 -11 -9 -29 -16 -41 -16 -25 0 -67 28 -60 40 3 4 -1 11 -7
14 -9 3 -7 9 6 20 25 20 42 21 26 1z m68 3 c17 -17 15 -38 -4 -38 -8 0 -12 5
-9 10 4 6 1 17 -5 25 -15 18 1 20 18 3z"/>
<path d="M1600 725 c0 -3 19 -18 42 -35 30 -22 52 -30 84 -30 76 0 126 34 94
63 -10 9 -12 8 -7 -5 8 -23 -10 -35 -64 -43 -48 -7 -92 7 -118 39 -13 15 -31
22 -31 11z"/>
</g>
</svg>
