<?xml version="1.0" standalone="no"?>
<!DOCTYPE svg PUBLIC "-//W3C//DTD SVG 20010904//EN"
 "http://www.w3.org/TR/2001/REC-SVG-20010904/DTD/svg10.dtd">
<svg version="1.0" xmlns="http://www.w3.org/2000/svg"
 width="900.000000pt" height="1017.000000pt" viewBox="0 0 900.000000 1017.000000"
 preserveAspectRatio="xMidYMid meet">

<g transform="translate(0.000000,1017.000000) scale(0.100000,-0.100000)"
fill="#000000" stroke="none">
<path d="M4290 10160 c-725 -71 -1367 -474 -1738 -1090 -193 -320 -298 -656
-321 -1032 -36 -571 139 -1123 499 -1572 40 -50 63 -85 53 -82 -39 12 -200 36
-311 47 -140 14 -383 6 -532 -17 -882 -134 -1607 -771 -1849 -1624 -63 -221
-84 -379 -84 -625 0 -219 18 -361 68 -561 205 -804 839 -1438 1640 -1639 200
-50 343 -68 555 -68 249 -1 402 20 634 85 557 155 1072 560 1350 1059 46 82
46 89 1 -307 -147 -1311 -347 -2156 -591 -2501 -24 -34 -85 -96 -134 -138 -50
-42 -90 -78 -90 -81 0 -2 478 -4 1063 -4 l1062 1 -30 25 c-171 146 -218 201
-289 341 -205 409 -384 1244 -505 2368 -17 154 -33 297 -35 318 -2 20 -3 37
-1 37 2 0 18 -26 36 -57 134 -237 336 -474 549 -645 555 -444 1260 -604 1955
-443 789 183 1430 795 1659 1582 65 223 80 346 81 628 0 269 -13 381 -70 593
-214 799 -869 1433 -1675 1621 -299 71 -646 78 -940 21 -52 -10 -96 -17 -97
-16 -1 1 25 35 59 76 143 175 290 432 372 651 41 112 88 292 113 434 25 145
25 548 0 697 -81 481 -283 887 -607 1222 -364 377 -798 602 -1310 681 -124 18
-420 27 -540 15z"/>
</g>
</svg>
