<?xml version="1.0" standalone="no"?>
<!DOCTYPE svg PUBLIC "-//W3C//DTD SVG 20010904//EN"
 "http://www.w3.org/TR/2001/REC-SVG-20010904/DTD/svg10.dtd">
<svg version="1.0" xmlns="http://www.w3.org/2000/svg"
 width="640.000000pt" height="744.000000pt" viewBox="0 0 640.000000 744.000000"
 preserveAspectRatio="xMidYMid meet">

<g transform="translate(0.000000,744.000000) scale(0.100000,-0.100000)"
fill="#000000" stroke="none">
<path d="M3086 6583 c-476 -712 -842 -1159 -1435 -1753 -381 -381 -521 -544
-690 -805 -474 -731 -480 -1450 -16 -1910 213 -211 491 -340 832 -385 145 -20
427 -8 581 25 177 37 356 99 518 180 78 39 140 66 138 61 -1 -6 -23 -78 -48
-161 -125 -413 -235 -690 -354 -890 -20 -33 -83 -127 -140 -208 -57 -82 -102
-151 -99 -153 2 -2 403 -3 890 -2 l886 3 -125 145 c-68 80 -152 185 -185 233
-142 207 -273 551 -372 983 l-15 61 92 -46 c511 -260 1090 -280 1538 -55 248
125 448 327 564 569 90 190 124 344 124 564 0 75 -7 181 -15 236 -71 472 -352
963 -799 1395 -620 601 -854 856 -1178 1285 -106 142 -306 441 -422 633 -55
90 -106 173 -115 183 -15 19 -22 11 -155 -188z"/>
</g>
</svg>
