<?xml version="1.0" standalone="no"?>
<!DOCTYPE svg PUBLIC "-//W3C//DTD SVG 20010904//EN"
 "http://www.w3.org/TR/2001/REC-SVG-20010904/DTD/svg10.dtd">
<svg version="1.0" xmlns="http://www.w3.org/2000/svg"
 width="360.000000pt" height="540.000000pt" viewBox="0 0 360.000000 540.000000"
 preserveAspectRatio="xMidYMid meet">

<g transform="translate(0.000000,540.000000) scale(0.100000,-0.100000)"
fill="#000000" stroke="none">
<path d="M2423 5089 c19 -11 14 -29 -9 -29 -8 0 -14 7 -14 15 0 14 -12 14 -82
0 -10 -2 -18 1 -18 7 0 5 -4 6 -10 3 -5 -3 -10 -11 -10 -16 0 -7 20 -8 55 -4
30 4 55 4 55 -1 0 -4 -14 -23 -32 -41 -27 -28 -29 -33 -14 -39 9 -4 38 -4 64
0 l46 6 -34 -35 c-18 -19 -31 -37 -28 -41 4 -3 26 -8 50 -11 71 -8 72 -10 13
-59 -31 -25 -57 -44 -58 -42 -39 77 -58 107 -96 152 -49 56 -140 129 -169 134
-9 2 5 -11 32 -28 83 -54 177 -162 211 -242 23 -57 10 -46 -26 22 -43 80 -149
188 -221 224 -31 15 -63 26 -69 24 -7 -2 14 -17 47 -32 72 -34 128 -78 147
-114 8 -15 30 -53 49 -84 20 -32 43 -87 52 -124 9 -36 66 -190 126 -342 60
-152 108 -278 106 -280 -6 -5 -74 111 -102 174 -15 33 -61 154 -104 269 -94
257 -147 369 -197 421 -37 38 -163 113 -163 97 0 -4 26 -21 57 -38 31 -16 72
-44 90 -63 47 -47 114 -185 193 -401 81 -221 103 -278 131 -334 32 -62 173
-278 249 -382 61 -82 149 -216 179 -272 11 -21 10 -22 -11 -14 -13 5 -36 6
-53 4 -24 -4 -42 5 -89 41 -32 26 -69 49 -82 52 -12 3 -51 37 -84 75 -66 74
-90 129 -90 202 0 22 -15 86 -34 141 -19 56 -42 130 -51 166 -9 36 -28 91 -41
122 -15 36 -24 78 -24 110 -1 43 -13 81 -64 198 -81 185 -96 201 -250 264 -98
41 -132 50 -196 54 -68 4 -177 -7 -232 -24 -33 -10 -19 24 29 71 26 25 43 45
38 45 -17 0 -95 -84 -95 -102 0 -10 -17 -35 -38 -56 -22 -20 -44 -47 -50 -59
-15 -27 -16 -148 -1 -174 9 -17 4 -30 -27 -74 -29 -43 -35 -59 -30 -82 17 -68
18 -89 2 -102 -21 -17 -20 -60 1 -90 15 -22 15 -28 -1 -92 -21 -80 -11 -133
30 -151 23 -11 23 -12 8 -36 -10 -15 -14 -36 -11 -56 3 -18 -1 -43 -9 -56 -17
-32 -17 -36 0 -53 13 -13 12 -18 -10 -38 -24 -22 -26 -23 -35 -6 -17 29 -79
19 -79 -13 0 -12 -9 -20 -22 -22 -27 -4 -36 -41 -17 -64 10 -12 1 -24 -50 -70
-68 -62 -106 -119 -116 -177 -4 -21 -15 -42 -26 -47 -21 -12 -99 -141 -99
-164 0 -9 -11 -21 -24 -27 -13 -6 -29 -22 -34 -34 -6 -13 -20 -28 -30 -34 -16
-9 -23 -6 -36 14 -9 14 -23 25 -30 25 -8 0 -24 8 -37 19 l-23 19 37 41 c20 22
39 53 42 68 3 16 16 62 30 103 14 42 25 90 25 108 0 27 -4 32 -23 32 -24 0
-47 -17 -47 -34 0 -5 10 -1 21 10 22 19 22 19 10 -3 -8 -15 -8 -30 -1 -49 8
-20 7 -39 -4 -73 -8 -25 -17 -62 -20 -82 -4 -21 -19 -47 -37 -65 -36 -34 -74
-93 -65 -101 3 -3 8 2 12 11 10 25 22 19 39 -20 25 -59 20 -116 -13 -146 -33
-31 -94 -52 -124 -43 -43 14 -55 34 -68 115 -12 75 -11 81 12 132 14 29 41 78
60 108 33 52 38 55 77 56 52 2 67 15 79 67 5 23 13 50 17 60 5 11 3 17 -6 17
-7 0 0 13 15 29 25 26 31 28 57 19 17 -6 42 -7 57 -3 67 16 130 27 165 28 30
1 37 5 37 22 0 32 -37 84 -65 91 -44 11 -108 -5 -138 -34 l-29 -27 33 54 c39
62 52 70 79 46 14 -13 28 -16 50 -11 40 7 96 -16 105 -43 15 -48 45 -11 45 54
0 57 -19 85 -58 85 -12 0 -32 5 -46 11 -19 9 -31 8 -55 -4 -30 -15 -30 -14 15
39 49 57 54 60 84 44 13 -7 21 -6 30 5 6 7 18 11 26 8 33 -13 63 6 74 48 6 23
9 47 6 55 -3 9 2 14 14 14 26 0 25 16 -6 86 -29 66 -40 77 -66 63 -12 -6 -18
-6 -18 0 0 37 -75 54 -106 24 -9 -10 -27 -16 -39 -15 -18 3 -26 -8 -50 -63
-26 -63 -27 -66 -10 -85 10 -12 13 -20 7 -20 -7 0 -12 -13 -12 -29 0 -23 6
-31 30 -40 17 -5 30 -13 30 -17 0 -13 -60 -132 -72 -142 -10 -8 -13 3 -13 54
0 84 -13 96 -107 105 -56 5 -78 4 -95 -7 -32 -20 -29 -34 7 -34 26 0 34 -6 48
-37 10 -21 34 -55 54 -75 51 -53 55 -79 19 -131 -16 -23 -39 -51 -52 -62 -15
-13 -12 -6 8 17 17 20 34 46 38 57 10 32 -21 84 -62 106 -20 11 -50 31 -65 43
-27 23 -28 23 -28 4 0 -37 31 -177 44 -202 18 -33 24 -72 11 -76 -5 -2 -19 11
-30 29 -23 36 -55 46 -78 23 -9 -9 -31 -16 -50 -16 -44 0 -67 -8 -67 -25 0 -8
-17 -14 -45 -17 l-45 -3 0 35 c0 66 -54 109 -65 53 -3 -16 -13 -54 -22 -85
-15 -55 -15 -60 3 -100 10 -23 34 -57 51 -75 18 -18 33 -40 33 -49 0 -9 12
-43 26 -75 l26 -58 -25 -48 c-14 -26 -40 -76 -56 -110 l-31 -62 31 13 c24 10
38 28 59 75 l27 62 11 -68 c8 -48 8 -70 0 -80 -6 -8 -8 -33 -5 -64 5 -39 3
-51 -9 -56 -8 -3 -26 -21 -39 -40 -13 -20 -34 -40 -46 -47 -25 -12 -82 -104
-93 -148 -6 -28 -6 -28 44 -28 27 0 50 -2 50 -5 0 -3 -11 -22 -23 -43 -49 -76
-62 -137 -60 -272 1 -126 29 -336 59 -438 13 -47 13 -54 -1 -68 -13 -14 -13
-18 0 -42 18 -33 100 -145 180 -245 33 -41 86 -108 117 -148 31 -41 91 -111
133 -157 55 -60 89 -110 125 -182 28 -55 50 -110 50 -122 0 -13 11 -46 24 -75
14 -28 34 -87 46 -130 31 -115 99 -248 165 -320 31 -35 52 -63 46 -63 -18 0
-122 132 -150 191 l-27 56 -54 -49 c-42 -38 -60 -47 -84 -45 -25 2 -32 -2 -34
-21 -4 -25 23 -41 40 -24 9 9 73 7 107 -4 23 -8 -27 -52 -63 -56 -23 -2 -31
-8 -31 -23 0 -21 42 -35 54 -17 8 12 101 26 101 14 0 -14 -43 -50 -64 -54 -11
-1 -22 -10 -24 -18 -5 -13 -3 -13 11 -1 13 10 20 11 31 2 16 -13 126 -11 126
2 0 5 -24 6 -55 2 -61 -7 -67 0 -30 35 42 39 33 53 -30 48 -30 -3 -55 -3 -55
-1 0 2 15 17 33 33 27 25 30 31 17 40 -8 5 -31 10 -50 10 -62 1 -63 13 -5 58
l55 42 21 -43 c27 -53 47 -79 111 -145 52 -53 115 -98 124 -89 3 2 -12 14 -32
26 -20 12 -34 24 -31 27 3 3 22 -6 44 -20 37 -24 93 -44 93 -33 0 3 -24 16
-53 30 -28 13 -66 35 -83 50 -23 20 -93 125 -131 199 -2 3 -14 44 -27 90 -14
46 -72 202 -130 347 -58 146 -104 266 -102 268 5 5 89 -147 120 -216 15 -35
59 -150 97 -255 85 -233 148 -365 197 -414 37 -37 162 -110 162 -95 0 4 -26
22 -58 38 -31 17 -74 47 -94 67 -46 46 -109 176 -178 368 -76 211 -128 339
-157 390 -52 90 -149 237 -226 342 -70 97 -200 299 -194 303 1 1 27 -1 57 -4
44 -5 65 -15 108 -49 30 -23 64 -45 77 -48 12 -3 51 -37 85 -76 67 -74 90
-129 90 -210 0 -35 56 -222 117 -393 14 -38 27 -97 29 -129 4 -81 119 -347
168 -391 33 -30 172 -94 262 -121 69 -20 202 -16 307 11 39 10 35 -7 -14 -60
-23 -25 -37 -45 -31 -45 16 0 82 78 82 97 0 10 21 39 47 65 45 45 47 51 51
112 2 35 -1 80 -8 100 -11 33 -9 38 24 82 41 53 41 56 22 111 -13 37 -12 43 5
69 23 35 24 62 3 92 -11 16 -14 33 -9 55 23 109 13 180 -26 192 -23 7 -23 14
-4 40 10 12 13 30 9 52 -4 23 -1 41 11 59 16 24 16 27 -1 45 -16 18 -16 20 7
38 22 18 26 18 41 4 21 -19 68 -10 75 15 2 10 14 22 26 27 28 13 34 45 13 61
-15 11 -10 18 44 65 72 64 106 113 119 170 5 23 21 53 35 68 36 37 96 139 96
162 0 11 6 19 13 19 6 0 29 19 50 42 l37 43 21 -28 c11 -15 27 -27 34 -27 7 0
23 -9 36 -19 l24 -19 -43 -46 c-26 -29 -42 -55 -42 -71 0 -14 -9 -51 -21 -83
-42 -114 -44 -152 -9 -152 9 0 25 9 35 20 10 11 21 18 23 15 3 -3 -5 -16 -17
-29 -20 -21 -26 -22 -61 -13 -27 8 -50 7 -77 0 -80 -23 -140 -34 -156 -27 -14
5 -17 0 -17 -26 0 -22 9 -41 30 -62 28 -28 35 -30 81 -26 29 3 62 14 79 27
l29 21 -31 -50 c-32 -52 -47 -60 -68 -35 -8 10 -30 15 -64 15 -54 0 -96 20
-96 46 0 22 -18 17 -36 -11 -33 -50 2 -134 55 -136 14 0 35 -4 46 -8 12 -5 33
-3 53 5 l32 13 -47 -54 c-50 -59 -54 -61 -85 -44 -17 9 -24 8 -32 -2 -6 -8
-21 -13 -33 -11 -41 6 -62 -15 -69 -68 -5 -35 -11 -50 -21 -50 -18 0 -15 -19
14 -95 16 -41 23 -50 44 -51 14 0 35 -10 47 -22 27 -27 66 -28 91 -3 11 11 28
17 38 15 23 -6 31 4 63 73 22 50 22 54 6 72 -11 12 -14 21 -7 26 28 17 9 49
-47 80 -8 5 32 93 58 128 34 46 34 46 20 -3 -13 -44 3 -105 33 -124 30 -20
160 -25 181 -7 24 20 20 29 -16 33 -26 2 -36 10 -49 38 -9 19 -33 52 -53 73
-51 55 -54 77 -17 136 29 45 71 91 71 78 0 -3 -16 -24 -35 -47 -57 -69 -45
-104 58 -173 51 -34 67 -41 67 -29 -1 34 -38 192 -47 204 -6 7 -14 28 -18 45
-9 44 13 44 40 0 23 -36 55 -46 75 -22 8 9 29 15 56 15 30 0 47 5 56 18 8 11
31 21 56 24 l42 6 0 -37 c0 -40 23 -81 46 -81 8 0 14 10 14 23 0 13 9 51 21
85 l21 62 -26 49 c-14 27 -37 61 -51 75 -14 14 -25 33 -25 42 0 9 -12 43 -27
76 l-26 59 56 109 c32 61 55 110 52 110 -4 0 -18 -6 -33 -14 -19 -10 -35 -33
-51 -71 -27 -64 -35 -60 -46 21 -4 34 -3 54 4 59 12 7 13 60 2 89 -6 15 0 27
25 48 18 16 36 38 39 49 4 10 15 19 26 19 25 0 84 91 92 143 l6 37 -50 0 -50
0 20 29 c62 87 83 200 70 376 -10 126 -41 311 -63 373 -13 37 -13 42 -1 42 9
0 15 10 15 23 0 22 -30 67 -123 186 -23 30 -83 108 -133 173 -49 65 -127 158
-173 208 -63 69 -94 113 -132 190 -27 54 -49 107 -49 117 0 10 -12 45 -26 78
-14 33 -34 89 -44 125 -10 36 -23 78 -29 95 -16 39 -3 61 60 109 30 24 55 36
66 32 25 -8 46 8 41 30 -3 15 -11 18 -43 16 -22 -1 -60 0 -85 4 l-45 6 30 24
c17 13 40 24 51 24 33 0 48 24 29 44 -15 15 -45 12 -45 -5 0 -5 -26 -9 -57 -9
l-56 0 22 24 c13 14 35 26 50 28 36 4 44 48 9 48 -21 -1 -21 -2 -5 -11z m77
-94 c0 -8 -7 -15 -15 -15 -8 0 -15 7 -15 15 0 8 7 15 15 15 8 0 15 -7 15 -15z
m-670 -20 c0 -16 -45 -21 -54 -6 -8 12 4 21 31 21 14 0 23 -6 23 -15z m73 5
c20 0 20 -1 4 -17 -13 -13 -21 -15 -34 -7 -24 15 -31 39 -9 31 10 -4 27 -7 39
-7z m-153 -10 c0 -5 -13 -10 -30 -10 -16 0 -30 5 -30 10 0 6 14 10 30 10 17 0
30 -4 30 -10z m-80 -15 c0 -10 -10 -15 -30 -15 -49 0 -34 24 18 29 6 0 12 -6
12 -14z m305 2 c12 -10 14 -16 7 -21 -13 -8 -52 10 -52 24 0 14 23 12 45 -3z
m-151 -9 c16 7 28 8 31 2 4 -6 21 -10 40 -10 19 0 37 -5 41 -11 3 -6 19 -9 35
-7 19 3 29 0 29 -8 0 -13 55 -36 64 -27 3 3 12 -2 21 -11 9 -9 23 -16 32 -16
8 0 24 -12 35 -26 15 -18 28 -24 44 -21 20 4 28 -9 85 -137 48 -109 64 -157
70 -211 4 -38 18 -101 32 -140 51 -144 106 -332 112 -385 3 -30 10 -72 16 -92
12 -45 129 -183 163 -192 13 -3 49 -26 81 -51 46 -36 67 -45 97 -45 21 0 56
-9 77 -20 30 -15 50 -18 90 -13 44 5 51 3 51 -12 0 -9 -9 -19 -20 -22 -11 -3
-20 -12 -20 -19 0 -17 0 -17 -85 2 -39 9 -81 16 -95 16 -14 0 -37 11 -51 24
-19 18 -33 23 -50 19 -19 -4 -27 0 -41 25 -12 21 -23 29 -40 27 -15 -1 -23 4
-26 18 -7 32 -22 45 -56 45 -24 0 -37 8 -58 38 -15 21 -30 51 -34 65 -3 15
-15 33 -25 40 -10 7 -32 44 -49 82 -24 52 -29 76 -24 99 21 90 -9 305 -53 375
-22 35 -45 139 -41 190 1 32 -2 46 -12 49 -22 7 -30 23 -30 58 0 23 -5 33 -20
37 -16 4 -20 14 -20 45 0 34 -4 41 -25 46 -15 4 -30 17 -35 32 -6 14 -16 24
-22 22 -21 -3 -56 12 -62 27 -4 11 -16 13 -48 9 -39 -6 -45 -4 -57 20 -16 30
-24 32 -41 11 -7 -8 -28 -15 -47 -15 -21 0 -36 6 -39 15 -8 19 -35 19 -60 0
-25 -19 -43 -19 -65 1 -16 14 -19 14 -38 -5 -25 -25 -39 -26 -61 -6 -15 13
-20 12 -49 -9 -30 -22 -61 -25 -61 -7 0 4 18 24 39 45 37 36 41 38 56 22 20
-20 49 -21 68 -2 8 8 24 12 35 9 11 -2 28 0 38 5 12 7 23 6 35 -1 13 -8 24 -8
43 1z m222 -18 c19 -8 24 -14 17 -21 -14 -14 -53 -2 -53 17 0 17 1 17 36 4z
m90 -42 c9 -14 -2 -21 -25 -13 -28 8 -28 35 -1 28 11 -3 23 -10 26 -15z m422
4 c2 -7 -6 -12 -17 -12 -21 0 -27 11 -14 24 9 9 26 2 31 -12z m-725 -6 c8 -22
55 -28 87 -12 27 13 30 12 51 -10 12 -13 28 -24 35 -24 19 0 37 -38 30 -66 -7
-25 22 -121 55 -185 24 -48 24 -63 -1 -115 -16 -32 -18 -47 -11 -67 12 -30 4
-63 -32 -132 -32 -63 -79 -108 -140 -135 -109 -49 -210 8 -285 159 -34 68 -37
83 -40 173 l-4 98 24 -9 c15 -6 31 -5 42 1 27 15 29 5 12 -57 -17 -66 -14 -78
20 -94 36 -16 64 -14 64 5 0 13 3 14 14 5 26 -22 70 19 46 43 -7 7 -10 3 -10
-13 0 -19 -4 -22 -32 -19 -22 2 -32 -1 -30 -9 3 -17 -28 -16 -52 2 -19 14 -19
17 -3 90 33 150 16 205 -64 205 -34 0 -40 3 -35 18 3 9 8 35 11 57 12 73 13
75 46 68 21 -4 35 0 50 12 15 14 22 16 31 7 16 -16 59 -14 82 3 25 19 32 19
39 1z m361 -35 c12 -13 14 -21 6 -26 -13 -8 -40 12 -40 31 0 20 14 17 34 -5z
m-619 -41 c-4 -23 -9 -39 -12 -36 -3 2 -2 23 2 46 4 23 9 39 12 36 3 -2 2 -23
-2 -46z m-59 -17 c1 -32 4 -77 9 -101 6 -36 4 -50 -15 -84 -19 -33 -22 -50
-17 -96 4 -39 1 -64 -9 -85 -14 -27 -14 -31 5 -51 20 -21 20 -21 1 -76 -25
-73 -25 -125 1 -161 11 -16 25 -29 31 -29 7 0 2 10 -10 23 -35 37 -38 79 -11
157 23 67 23 69 4 89 -15 18 -16 25 -6 47 7 17 9 48 6 83 -5 49 -3 61 20 96
25 39 26 39 20 10 -14 -72 -18 -217 -5 -239 10 -20 8 -32 -20 -86 -29 -58 -31
-67 -21 -101 6 -20 18 -42 26 -49 19 -16 19 -10 0 26 -22 42 -19 67 16 135 26
53 28 63 16 77 -13 16 -15 79 -8 177 l3 30 8 -29 c16 -53 14 -217 -4 -265 -9
-24 -16 -66 -16 -93 0 -41 5 -54 29 -79 33 -32 29 -40 -4 -9 l-21 19 -24 -43
c-22 -42 -23 -47 -10 -99 14 -59 9 -77 -19 -77 -28 0 -31 10 -15 42 10 19 14
42 10 62 -4 21 -1 39 10 55 16 22 15 24 -10 45 -34 27 -47 74 -34 123 20 77
20 93 4 118 -21 32 -20 54 3 88 17 27 18 32 3 77 l-15 48 38 52 c36 48 37 54
27 84 -14 37 -16 146 -4 146 5 0 8 -26 8 -57z m600 -42 c9 -25 28 -61 41 -79
44 -59 47 -84 19 -146 -14 -31 -26 -63 -26 -71 0 -8 11 -49 25 -92 24 -77 24
-123 0 -123 -7 0 -11 9 -8 23 3 13 -7 52 -22 87 l-26 63 25 69 c33 87 32 97
-4 143 -16 20 -32 54 -35 74 -5 32 -18 78 -40 136 -4 11 2 7 13 -9 11 -16 28
-50 38 -75z m-567 12 l-1 -78 -15 53 c-12 41 -13 58 -5 77 7 14 14 25 17 25 3
0 5 -35 4 -77z m536 -38 c4 -33 19 -68 41 -101 l35 -52 -21 -58 c-33 -91 -34
-106 -10 -163 18 -41 22 -63 17 -108 -6 -59 -22 -88 -32 -61 -4 9 1 30 10 47
15 29 14 33 -6 73 -31 61 -34 140 -7 187 l21 37 -30 70 c-37 82 -51 131 -57
199 l-4 50 18 -35 c10 -19 21 -57 25 -85z m88 -3 c58 -100 60 -108 42 -183
-20 -88 -19 -148 6 -203 20 -46 20 -76 -1 -76 -5 0 -10 11 -10 23 0 13 -9 50
-20 82 -11 32 -20 72 -20 89 0 17 9 48 20 69 27 49 25 87 -5 131 -30 44 -59
101 -70 135 -13 42 11 14 58 -67z m30 10 c7 -38 2 -38 -21 1 -18 32 -19 34 -2
30 10 -3 20 -17 23 -31z m216 -105 c12 -43 31 -96 42 -118 11 -22 19 -48 17
-56 -3 -17 -101 238 -112 292 -12 60 30 -35 53 -118z m-768 73 c30 -17 24 -37
-10 -32 -16 2 -38 -1 -50 -7 -19 -10 -21 -9 -21 12 0 13 3 27 7 30 10 10 52 8
74 -3z m602 -76 c2 -25 -1 -65 -9 -91 -19 -62 -18 -100 6 -185 11 -40 20 -85
20 -99 0 -31 -24 -57 -35 -38 -4 6 -3 14 2 18 17 12 13 72 -8 122 -23 53 -22
109 3 204 9 32 9 53 1 79 -9 28 -8 36 2 36 7 0 14 -18 18 -46z m-599 26 c29
-11 33 -27 13 -55 -13 -17 -14 -17 -19 3 -4 16 -2 19 11 15 12 -3 11 -1 -3 7
-10 7 -33 10 -52 7 -47 -8 -32 14 23 32 1 1 13 -3 27 -9z m632 -87 c-16 -60
-17 -150 0 -237 14 -78 15 -99 5 -124 -22 -52 -75 -47 -84 8 -3 21 -5 22 -11
7 -11 -24 19 -67 47 -67 13 0 34 11 47 25 21 22 22 30 16 87 -3 35 -8 90 -11
123 -4 53 -3 55 5 20 17 -74 24 -239 11 -263 -17 -32 -74 -30 -106 3 -27 26
-33 73 -13 93 20 20 36 14 30 -13 -5 -29 20 -44 43 -25 21 17 19 80 -6 168
-13 45 -18 87 -15 105 14 67 27 107 37 107 6 0 8 -8 5 -17z m62 -256 c10 -39
-1 -186 -17 -215 -10 -19 -15 -20 -37 -10 -20 9 -28 9 -41 -5 -15 -14 -19 -13
-49 11 -20 16 -34 36 -34 49 0 12 -5 23 -11 25 -6 2 -9 13 -7 23 4 16 7 14 20
-15 19 -44 73 -76 112 -66 44 11 60 62 49 162 -9 82 -1 102 15 41z m-757 -41
c-20 -82 -15 -111 26 -145 25 -21 32 -31 21 -31 -9 0 -33 15 -52 34 -42 39
-46 70 -20 155 11 38 19 50 26 43 8 -8 7 -24 -1 -56z m519 24 c10 -24 10 -37
1 -56 -19 -43 -14 -65 19 -77 22 -8 28 -16 24 -29 -3 -11 3 -22 15 -30 26 -16
28 -58 3 -58 -10 0 -34 -18 -55 -40 -20 -22 -43 -40 -52 -40 -8 0 -15 -5 -15
-10 0 -6 -11 -15 -25 -20 -14 -5 -25 -14 -25 -19 0 -6 -7 -8 -15 -5 -8 4 -23
3 -33 -1 -33 -14 -133 -6 -145 13 -4 6 -16 12 -26 12 -28 0 -34 29 -11 57 14
18 20 41 20 74 l0 49 43 0 c87 0 183 69 230 166 11 24 24 44 28 44 4 0 12 -14
19 -30z m557 -173 c37 -40 99 -112 138 -162 38 -49 103 -133 145 -186 96 -122
150 -198 150 -208 0 -12 -27 -21 -44 -15 -8 3 -19 25 -26 50 -26 90 -96 188
-260 359 -102 106 -158 181 -209 282 -42 83 -39 94 3 15 19 -35 65 -95 103
-135z m-1037 86 c0 -48 3 -54 45 -94 66 -63 58 -99 -23 -99 l-44 0 4 -35 c2
-19 3 -35 2 -35 -1 0 -9 -3 -18 -6 -11 -4 -16 0 -16 13 0 11 -7 28 -15 39 -18
24 -19 64 -1 64 7 0 27 -5 45 -11 38 -13 81 -4 81 16 0 9 -22 37 -50 64 -53
51 -56 63 -39 125 14 51 29 31 29 -41z m63 -49 c-3 -8 9 -26 26 -41 51 -45 38
-116 -23 -127 -22 -4 -36 -13 -36 -21 0 -20 -26 -19 -34 1 -11 28 -6 34 24 28
41 -9 80 18 80 54 0 20 -13 40 -45 71 -34 33 -45 50 -45 74 l0 31 29 -28 c16
-16 27 -35 24 -42z m678 -5 c-13 -78 -38 -115 -74 -111 -14 2 -28 -2 -32 -7
-9 -15 -34 -14 -51 3 -22 22 -18 39 6 24 16 -10 23 -10 36 4 13 13 22 14 40 6
32 -15 51 3 59 55 11 72 17 99 21 94 3 -2 0 -33 -5 -68z m-1157 25 c24 -9 20
-51 -4 -59 -37 -12 -64 27 -38 53 14 14 20 14 42 6z m566 -99 c0 -22 -9 -54
-19 -71 -20 -32 -76 -60 -86 -43 -4 5 5 9 19 9 40 0 66 33 66 84 0 36 -5 49
-25 64 -35 28 -31 35 10 14 31 -15 35 -21 35 -57z m607 33 c-3 -7 -5 -2 -5 12
0 14 2 19 5 13 2 -7 2 -19 0 -25z m391 -182 c62 -65 133 -147 158 -182 40 -56
94 -167 94 -194 0 -5 -18 -10 -40 -10 -22 0 -40 4 -40 9 0 17 -129 221 -201
317 -68 91 -140 215 -138 239 0 6 12 -6 27 -25 15 -19 78 -88 140 -154z
m-1110 141 c21 -17 -11 -29 -43 -17 -38 14 -85 12 -91 -4 -3 -8 4 -35 16 -61
17 -36 19 -50 9 -61 -18 -22 -29 -17 -29 14 0 15 -5 44 -11 65 -8 31 -7 43 5
61 13 20 20 22 73 18 32 -2 64 -9 71 -15z m699 -19 c-11 -26 -25 -38 -60 -52
-51 -19 -88 -18 -95 3 -3 8 1 12 9 9 8 -3 25 -1 39 5 14 5 36 10 50 11 16 1
32 12 45 32 25 40 30 36 12 -8z m23 -9 c0 -18 -57 -69 -77 -69 -11 1 -5 8 19
20 20 11 39 29 43 40 7 22 15 27 15 9z m-1403 -14 c29 -21 38 -73 22 -135 -12
-47 -29 -68 -29 -35 0 8 -17 32 -38 53 -21 21 -44 52 -51 70 -8 18 -26 39 -40
47 -25 13 -22 14 44 15 48 0 78 -5 92 -15z m156 -3 c3 -4 -6 -20 -19 -35 -27
-32 -28 -32 -13 12 11 30 23 39 32 23z m1045 -15 c2 -11 -3 -17 -16 -17 -24 0
-32 8 -25 26 7 20 37 13 41 -9z m195 -24 c-8 -23 -23 -33 -47 -33 -14 0 -11 6
15 24 19 13 35 25 36 25 1 1 -1 -7 -4 -16z m-236 -9 c6 -16 -15 -37 -29 -28
-4 3 -8 14 -8 25 0 23 28 26 37 3z m104 -4 c20 0 42 -7 49 -15 7 -8 25 -15 40
-15 34 0 45 -12 74 -88 24 -59 20 -87 -9 -76 -6 3 -18 -2 -25 -11 -7 -8 -26
-15 -42 -15 -21 0 -31 -6 -35 -19 -2 -10 -16 -24 -29 -30 -13 -6 -24 -14 -24
-18 0 -5 -18 -9 -40 -10 -22 0 -47 -6 -54 -13 -10 -7 -16 -8 -21 0 -9 14 -57
13 -80 -4 -30 -20 -94 -25 -97 -7 -2 10 -18 15 -55 16 -29 1 -56 5 -60 8 -12
13 -53 7 -53 -7 0 -17 -27 -29 -32 -14 -2 6 -25 11 -50 12 -36 1 -48 5 -52 19
-5 22 -56 24 -56 2 0 -9 -9 -15 -24 -15 -17 0 -26 7 -30 25 -5 21 -12 25 -41
25 -24 0 -35 5 -36 15 -1 8 -2 21 -3 28 0 6 -16 14 -35 17 -31 4 -33 6 -18 19
10 7 17 19 17 27 0 29 84 71 209 104 47 12 40 16 105 -49 14 -14 31 -21 39
-18 9 3 21 -1 28 -9 7 -9 23 -14 36 -11 13 2 26 0 29 -4 7 -12 51 -11 58 0 3
5 15 7 26 4 12 -3 29 2 40 12 10 9 23 14 29 11 5 -3 17 2 27 11 17 17 36 30
82 54 12 7 22 18 22 25 0 18 33 35 45 23 5 -5 26 -9 46 -9z m-505 -31 c7 -12
-15 -31 -28 -23 -4 3 -8 12 -8 20 0 17 26 19 36 3z m354 -9 c0 -13 -7 -20 -20
-20 -13 0 -20 7 -20 20 0 13 7 20 20 20 13 0 20 -7 20 -20z m-1222 -57 c62
-40 68 -82 19 -141 l-33 -40 -14 32 c-7 17 -21 68 -30 114 l-17 82 24 -15 c13
-8 35 -23 51 -32z m917 23 c0 -22 -14 -29 -34 -17 -19 12 -6 43 16 39 10 -2
18 -12 18 -22z m253 1 c2 -12 -3 -17 -17 -17 -12 0 -21 6 -21 13 0 31 32 34
38 4z m-815 -19 c10 -11 17 -37 17 -59 0 -39 -14 -60 -23 -34 -10 25 -67 48
-105 41 -25 -4 -41 0 -59 14 l-23 18 32 27 c30 23 39 25 88 20 38 -4 60 -13
73 -27z m627 -4 c0 -19 -28 -30 -42 -16 -8 8 -8 15 1 26 14 17 41 10 41 -10z
m127 10 c8 -21 -13 -42 -28 -27 -13 13 -5 43 11 43 6 0 13 -7 17 -16z m-59
-22 c3 -16 -2 -22 -17 -22 -24 0 -35 15 -27 36 9 23 40 13 44 -14z m-514 -14
c8 -13 6 -21 -7 -36 -25 -28 -21 -42 13 -42 30 0 41 -14 18 -23 -8 -3 -5 -6 5
-6 14 -1 17 -6 12 -21 -6 -19 -3 -20 33 -14 39 6 40 5 47 -25 6 -30 10 -32 43
-29 29 2 36 7 34 21 -2 10 3 17 12 17 21 0 30 -18 17 -34 -9 -11 0 -13 46 -12
50 1 58 -2 57 -16 -2 -20 11 -24 21 -8 3 6 17 10 31 10 25 0 33 15 12 23 -7 2
-9 8 -5 13 4 4 17 3 28 -4 11 -7 29 -10 40 -7 11 4 19 2 19 -5 0 -8 9 -10 26
-6 20 5 24 3 22 -11 -2 -12 2 -17 12 -14 8 2 34 4 56 5 23 1 49 10 59 19 21
22 51 22 64 0 9 -16 11 -16 28 -2 25 23 70 29 84 12 15 -17 16 -16 -61 -41
-69 -22 -219 -42 -321 -42 -75 0 -273 43 -346 76 -80 35 -215 133 -211 153 2
9 13 17 26 19 14 2 22 10 22 22 0 32 45 38 64 8z m-282 -88 c34 -27 43 -68 14
-68 -12 0 -48 -5 -81 -12 -79 -15 -155 -23 -155 -16 0 3 23 27 51 53 68 64
126 79 171 43z m1338 15 c0 -12 -185 -135 -204 -135 -4 0 -6 10 -4 23 2 16 11
23 31 25 22 3 27 8 27 29 0 23 3 25 29 20 21 -5 31 -2 35 9 3 9 13 14 20 11 8
-3 20 1 26 9 12 13 40 20 40 9z m20 -35 c0 -12 -128 -104 -187 -134 -48 -24
-53 -29 -53 -60 0 -40 -34 -154 -61 -209 -11 -20 -46 -78 -79 -127 -32 -49
-70 -114 -84 -144 -36 -75 -66 -208 -66 -288 0 -57 -3 -68 -17 -68 -14 0 -15
11 -10 93 7 108 35 225 70 294 14 26 57 97 96 156 68 106 103 189 115 276 l7
43 -38 -6 c-70 -13 -70 -12 -76 -76 -11 -125 -108 -266 -199 -290 -67 -19
-142 -8 -191 26 -99 70 -150 182 -130 284 10 50 10 52 -14 61 -46 17 -51 12
-69 -67 -23 -108 -10 -182 61 -334 77 -163 114 -278 122 -377 5 -70 4 -83 -9
-83 -12 0 -16 19 -20 93 -5 86 -9 103 -58 213 -29 65 -70 153 -91 195 -48 97
-63 176 -49 263 6 36 15 77 20 91 14 38 15 37 -43 68 -74 39 -98 59 -88 75 6
11 17 8 47 -13 92 -63 198 -101 363 -130 63 -11 107 -12 203 -4 67 5 142 14
166 20 88 19 203 71 274 124 67 49 88 57 88 35z m-1970 -69 c0 -20 -5 -42 -11
-48 -17 -17 -2 -48 36 -78 25 -19 35 -22 35 -11 0 25 52 -2 77 -40 l22 -34
-47 -76 -47 -77 -22 49 c-13 27 -23 59 -23 70 0 12 -11 32 -25 45 -15 13 -37
46 -51 72 l-25 49 20 61 c12 33 21 70 21 81 1 20 1 20 20 -3 12 -14 20 -38 20
-60z m820 58 c0 -6 -11 -25 -25 -41 -48 -57 -68 -109 -76 -202 -5 -49 -12
-105 -16 -125 l-7 -36 -7 30 c-4 17 -7 51 -8 78 0 26 -6 47 -11 47 -6 0 -8
-16 -5 -40 3 -22 7 -59 10 -82 3 -22 12 -53 19 -67 21 -39 53 -141 60 -191 10
-64 140 -300 166 -300 5 0 -3 19 -19 43 -81 120 -153 269 -137 284 1 2 16 -16
31 -39 16 -24 63 -77 105 -119 58 -58 87 -97 123 -167 l48 -92 -118 0 -118 0
-46 53 c-82 93 -97 135 -109 302 -5 66 -19 165 -31 220 -27 129 -29 238 -5
285 10 19 48 65 84 103 63 63 92 81 92 56z m-540 -44 c19 -20 25 -40 28 -88 4
-61 4 -62 -22 -62 -22 0 -26 5 -26 28 0 15 -9 47 -20 69 -23 48 -25 64 -7 71
20 9 23 8 47 -18z m-53 -55 c12 -25 22 -60 23 -77 0 -28 -4 -33 -24 -33 -17 0
-27 9 -37 32 -7 18 -29 50 -47 70 -19 21 -31 42 -27 48 4 6 26 10 48 8 39 -3
44 -7 64 -48z m-84 -31 c39 -45 53 -79 32 -79 -8 0 -15 -8 -18 -17 -3 -15 -6
-13 -17 10 -7 15 -21 27 -30 27 -10 0 -23 7 -30 15 -8 9 -21 13 -35 9 -18 -4
-28 1 -41 20 -9 15 -15 28 -13 30 19 15 50 25 81 26 30 0 42 -7 71 -41z m1949
29 c9 -7 18 -22 20 -33 2 -13 12 -21 30 -23 15 -2 34 -14 42 -28 11 -15 26
-24 43 -24 15 0 37 -10 51 -22 13 -13 38 -23 55 -24 18 -1 51 -5 75 -9 41 -7
42 -9 26 -26 -22 -25 -39 -24 -59 3 -13 19 -18 21 -35 10 -25 -15 -50 -16 -50
-1 0 7 -9 9 -24 5 -18 -4 -25 -1 -29 15 -3 11 -11 19 -19 18 -27 -3 -38 1 -38
17 0 12 -5 14 -17 9 -48 -20 -62 -18 -69 11 -4 16 -15 46 -25 66 -11 21 -19
40 -19 43 0 10 26 5 42 -7z m-1692 -37 c0 -11 -4 -23 -10 -26 -6 -4 -10 5 -10
19 0 14 5 26 10 26 6 0 10 -9 10 -19z m-110 -90 c0 -22 -16 -36 -24 -22 -8 12
3 41 15 41 5 0 9 -9 9 -19z m-90 -18 c0 -20 -24 -11 -28 10 -2 12 1 15 12 11
9 -3 16 -13 16 -21z m44 11 c9 -22 8 -24 -9 -24 -8 0 -15 9 -15 20 0 24 15 27
24 4z m1921 -41 c-9 -64 -61 -219 -88 -263 -12 -19 -37 -53 -57 -74 -30 -34
-32 -37 -8 -22 61 40 132 181 158 314 10 51 16 62 32 62 18 0 19 -5 13 -42
-15 -88 -37 -155 -68 -208 -36 -62 -173 -204 -260 -269 -32 -24 -56 -46 -53
-48 7 -7 104 68 185 143 119 110 183 222 206 357 3 21 10 35 16 31 5 -3 16 0
24 6 10 8 15 9 15 2 0 -17 39 -25 55 -12 8 6 19 9 25 5 7 -5 0 -14 -20 -26
-27 -17 -31 -24 -25 -48 3 -17 2 -32 -4 -36 -6 -3 -11 -15 -11 -25 0 -12 -8
-20 -22 -22 -20 -3 -23 -9 -23 -45 -1 -29 -8 -50 -22 -65 -16 -18 -19 -28 -12
-47 13 -35 6 -47 -33 -55 -39 -8 -143 -75 -214 -140 -53 -47 -82 -63 -49 -26
32 35 1 21 -50 -23 -86 -74 -248 -167 -291 -167 -25 0 -21 4 35 38 90 52 202
161 303 293 113 148 155 238 171 358 9 76 14 91 29 91 21 0 19 -20 -19 -158
-14 -51 -23 -95 -21 -98 7 -6 57 164 64 219 4 26 11 47 16 47 6 0 8 -19 3 -47z
m419 -40 c40 -188 59 -467 35 -533 -8 -22 -8 -22 -4 7 2 17 -2 54 -10 81 -11
35 -12 57 -5 82 10 33 6 50 -7 36 -4 -3 -6 -32 -4 -64 9 -187 6 -217 -22 -265
l-28 -47 -57 1 c-55 1 -56 1 -22 11 40 11 72 36 67 52 -2 6 -14 13 -28 17
l-24 7 23 1 c29 1 62 18 62 33 0 6 -11 8 -27 5 -24 -4 -26 -4 -10 8 17 13 23
35 9 35 -4 0 -14 -6 -21 -12 -11 -11 -13 -7 -7 21 3 19 2 39 -4 46 -7 9 -6 21
5 41 8 16 15 39 15 50 0 12 9 32 19 46 11 14 18 33 15 44 -3 12 3 27 15 38 16
15 18 22 10 33 -6 7 -18 13 -27 13 -12 0 -10 5 7 24 26 27 21 46 -11 46 -21 0
-21 0 -2 21 14 16 15 23 7 26 -9 3 -13 26 -13 68 0 41 -4 65 -12 69 -9 3 -7 9
6 20 11 9 23 16 26 16 4 0 15 -35 24 -77z m-2424 7 c-6 -11 -13 -20 -16 -20
-2 0 0 9 6 20 6 11 13 20 16 20 2 0 0 -9 -6 -20z m2366 -4 c-3 -13 -2 -45 3
-70 5 -26 5 -49 0 -52 -16 -10 -9 -36 11 -41 20 -5 20 -7 4 -24 -19 -21 -12
-49 12 -49 15 0 14 -3 -5 -23 -13 -15 -19 -30 -15 -41 4 -9 0 -24 -9 -34 -8
-9 -18 -35 -22 -56 -3 -22 -13 -49 -21 -60 -7 -11 -10 -24 -5 -30 5 -6 11 -36
15 -67 5 -51 4 -57 -14 -62 -29 -7 -25 -27 6 -27 43 0 22 -23 -42 -47 -74 -27
-205 -33 -184 -7 8 8 30 22 49 30 104 43 160 155 161 319 0 44 7 98 15 120 16
46 19 123 5 180 -8 33 -6 42 7 53 26 19 36 15 29 -12z m-54 -22 c5 -16 9 -61
10 -100 1 -67 -1 -74 -33 -115 -39 -50 -84 -91 -111 -101 -10 -4 -18 -14 -18
-22 0 -9 -9 -20 -20 -26 -11 -6 -20 -19 -20 -29 0 -10 -9 -26 -20 -36 -19 -17
-20 -17 -29 6 -9 25 -2 48 23 68 10 9 13 22 9 43 -5 27 -4 30 16 23 31 -9 56
2 70 31 6 14 19 24 29 23 32 -3 42 1 42 16 0 8 9 29 20 47 21 35 27 102 10
113 -15 9 -13 98 2 93 7 -3 16 -18 20 -34z m-42 -16 c0 -17 5 -46 12 -64 10
-30 9 -39 -16 -89 -23 -44 -32 -54 -47 -50 -14 5 -24 -2 -37 -24 -14 -26 -23
-31 -54 -31 -23 0 -38 -5 -39 -12 0 -7 -4 -3 -10 10 -7 18 -4 30 12 52 16 21
20 37 16 59 -6 27 -4 30 21 33 20 2 27 9 27 24 0 11 6 28 13 37 10 12 11 21 3
36 -9 16 -7 23 11 35 12 9 37 16 55 16 30 0 33 -3 33 -32z m-2349 -95 c-12
-20 -14 -14 -5 12 4 9 9 14 11 11 3 -2 0 -13 -6 -23z m-46 -99 c-19 -42 -35
-78 -35 -80 0 -2 -4 -4 -10 -4 -8 0 13 52 53 128 32 59 27 33 -8 -44z m308 45
c18 -13 33 -42 46 -87 11 -37 36 -92 55 -122 29 -45 32 -56 19 -59 -9 -1 -31
13 -50 34 -38 41 -53 39 -53 -11 0 -23 -11 -48 -35 -80 -19 -25 -35 -54 -35
-64 0 -35 -19 -31 -39 7 -12 21 -32 51 -45 67 -21 25 -27 28 -40 17 -9 -8 -16
-19 -16 -25 0 -7 -11 -23 -24 -35 l-24 -22 -6 63 c-3 35 -9 84 -12 111 -3 26
-3 47 1 47 4 0 18 -9 32 -20 30 -23 80 -26 126 -6 72 31 102 100 73 169 -17
42 -10 46 27 16z m2088 -142 c-17 -24 -40 -47 -51 -50 -11 -3 -28 -20 -37 -37
-10 -18 -33 -48 -50 -66 -18 -18 -33 -43 -33 -55 0 -35 -39 -88 -81 -109 -21
-11 -43 -29 -49 -40 -9 -17 -20 -20 -68 -19 -31 1 -46 4 -32 6 14 3 31 10 39
16 8 7 26 12 40 12 21 0 28 7 36 33 7 24 15 32 32 32 24 0 27 4 37 50 3 14 24
49 46 78 22 29 38 57 35 62 -3 5 4 14 15 20 11 6 20 17 20 26 0 8 10 18 23 23
12 5 40 28 62 52 50 55 60 33 16 -34z m-1903 55 c10 -10 39 -57 65 -104 26
-47 54 -91 63 -99 21 -17 70 -123 82 -177 13 -54 -3 -66 -23 -18 -14 33 -19
36 -55 36 -38 0 -39 1 -42 38 -2 31 -7 37 -25 36 -18 0 -22 6 -25 38 -2 21 0
38 3 38 17 0 120 -104 125 -126 6 -22 24 -35 24 -16 0 38 -93 126 -193 182
-54 31 -66 44 -95 99 -25 49 -30 67 -21 77 17 21 95 18 117 -4z m1927 -114
c-14 -137 -63 -221 -151 -258 -24 -11 -49 -28 -56 -39 -10 -17 -23 -21 -60
-21 -27 0 -48 5 -48 10 0 6 20 22 44 37 47 28 96 94 96 128 0 11 12 32 28 46
15 14 35 39 44 57 9 18 28 36 42 42 14 5 32 23 41 40 8 16 18 30 21 30 3 0 3
-33 -1 -72z m-225 7 c-17 -18 -20 -30 -15 -56 6 -31 4 -35 -24 -46 -25 -9 -31
-17 -31 -40 0 -27 -3 -29 -30 -25 -29 4 -30 3 -30 -32 0 -35 -12 -47 -25 -26
-10 17 -35 11 -35 -8 0 -29 -12 -34 -27 -12 -16 23 -30 18 -43 -14 -7 -18 -14
-22 -38 -18 -23 3 -34 -2 -50 -23 -19 -24 -26 -26 -83 -23 l-61 3 43 32 c24
17 91 72 149 123 132 116 231 184 242 167 15 -23 8 -35 -23 -42 -22 -5 -34
-15 -40 -35 -7 -20 -19 -30 -41 -34 -24 -5 -29 -10 -25 -26 3 -13 0 -20 -9
-20 -8 0 -14 -9 -14 -20 0 -17 -3 -19 -19 -10 -11 5 -22 7 -24 3 -12 -23 -15
-43 -7 -43 6 0 10 7 10 15 0 11 8 13 30 9 23 -5 30 -3 30 10 0 9 7 16 15 16
18 0 20 21 3 38 -9 9 -6 12 14 12 28 0 44 14 49 44 3 12 16 23 37 28 28 8 32
13 32 43 0 28 4 35 19 35 11 0 23 5 27 12 6 9 9 9 12 -1 2 -7 -6 -23 -18 -36z
m-1699 -81 c17 -8 29 -18 26 -20 -9 -9 -56 8 -61 22 -7 18 -2 18 35 -2z m-441
-38 c0 -18 -9 -45 -20 -59 -25 -32 -62 -117 -57 -131 3 -6 10 3 17 19 l13 30
8 -25 c7 -19 8 -16 5 17 -2 25 1 49 9 60 12 17 14 16 19 -7 3 -14 7 -44 8 -67
l4 -43 -93 0 c-82 0 -93 2 -93 17 0 26 50 121 67 128 11 4 13 1 9 -12 -4 -9
-9 -38 -12 -63 l-4 -45 15 53 c18 63 40 109 68 140 28 30 37 28 37 -12z m2131
-10 c-12 -18 -21 -42 -21 -53 0 -15 -9 -22 -30 -27 -24 -4 -32 -12 -36 -36 -5
-25 -11 -30 -34 -30 -15 0 -33 -7 -40 -15 -7 -8 -23 -15 -36 -15 -12 0 -26 -4
-29 -10 -3 -5 -31 -10 -62 -10 -55 0 -56 0 -39 19 13 15 26 18 52 14 29 -5 34
-3 34 14 0 31 13 36 31 12 19 -26 39 -18 39 17 0 24 1 24 25 8 33 -22 48 -10
40 32 -6 34 -5 34 27 32 30 -3 33 -1 33 26 1 25 24 46 63 55 2 1 -6 -14 -17
-33z m-1671 -13 c0 -29 -2 -29 -19 5 -10 18 -9 22 4 22 10 0 15 -9 15 -27z
m1344 -34 c-10 -12 -56 -50 -102 -86 -67 -53 -88 -64 -113 -61 -30 3 -26 6 52
50 46 25 102 62 124 82 44 39 69 48 39 15z m-1284 -53 c0 -36 15 -48 48 -39
13 3 25 -3 36 -18 24 -35 20 -40 -25 -37 -39 3 -43 6 -76 66 l-35 62 26 0 c23
0 26 -4 26 -34z m179 -94 c-25 -4 -25 -5 -32 38 l-7 35 30 -35 c27 -33 28 -35
9 -38z m-723 -37 c-56 -20 -79 -64 -33 -66 24 -1 18 -4 -25 -13 -16 -4 -28
-13 -28 -22 0 -13 6 -15 28 -10 l27 7 -23 -17 c-17 -11 -20 -20 -13 -27 7 -7
15 -6 26 3 15 12 16 10 10 -22 -4 -22 -3 -38 4 -42 8 -5 7 -15 -3 -34 -7 -15
-16 -43 -20 -64 -4 -20 -14 -39 -22 -42 -12 -5 -14 -13 -10 -32 5 -20 2 -30
-14 -41 -28 -20 -25 -41 6 -49 l27 -7 -23 -17 c-25 -19 -22 -50 5 -50 13 0 13
-3 3 -21 -10 -17 -10 -23 0 -26 8 -3 12 -26 12 -68 0 -38 4 -65 11 -67 12 -4
-15 -38 -31 -38 -19 0 -67 285 -71 420 -1 41 -1 100 1 130 l2 55 11 -45 c6
-25 11 -71 11 -103 0 -35 3 -54 9 -48 5 5 9 29 8 53 -9 212 -7 233 22 276 26
41 29 42 80 42 l52 -1 -39 -14z m214 5 c0 -6 -25 -22 -56 -37 -102 -48 -154
-153 -154 -310 0 -46 -6 -99 -15 -123 -16 -47 -19 -135 -6 -191 7 -30 5 -38
-10 -47 -10 -7 -20 -12 -22 -12 -2 0 -4 28 -4 62 -1 38 -5 64 -13 66 -8 3 -6
10 5 22 20 22 12 40 -18 40 -22 0 -22 1 2 19 26 20 24 51 -4 51 -19 0 -20 19
0 26 9 4 15 19 15 36 0 16 7 36 15 44 8 9 15 24 15 35 0 11 7 36 15 56 9 20
13 44 9 52 -4 9 -6 27 -5 41 1 14 -2 38 -8 52 -8 22 -7 27 10 31 10 3 19 13
19 22 0 12 -5 15 -20 10 -14 -4 -20 -2 -20 9 0 22 110 54 188 55 36 1 62 -3
62 -9z m114 -3 c-3 -8 -20 -21 -39 -30 -43 -20 -95 -91 -95 -128 0 -18 -7 -32
-20 -39 -11 -6 -31 -30 -45 -54 -14 -23 -36 -48 -50 -54 -14 -6 -34 -26 -46
-44 l-21 -33 6 79 c6 84 38 170 79 215 12 13 46 34 75 47 29 12 55 30 58 39 4
11 20 15 55 15 36 0 47 -3 43 -13z m114 6 c-14 -2 -32 -10 -38 -18 -8 -9 -22
-12 -40 -8 -26 5 -30 2 -38 -28 -5 -22 -15 -35 -28 -37 -23 -4 -44 -29 -44
-53 0 -18 -53 -103 -71 -114 -5 -4 -9 -15 -9 -26 0 -10 -7 -19 -15 -19 -8 0
-15 -9 -15 -19 0 -11 -8 -22 -18 -25 -10 -4 -40 -26 -65 -51 -29 -27 -47 -39
-47 -30 0 25 49 95 75 107 14 6 36 31 50 54 14 24 34 48 44 53 11 6 21 26 24
48 7 39 59 113 81 113 7 0 25 14 41 30 26 27 35 30 84 29 31 -1 44 -4 29 -6z
m142 -3 c0 -16 -35 -29 -51 -19 -23 14 -29 11 -41 -22 l-11 -32 -17 23 c-19
25 -40 20 -40 -11 0 -21 -20 -25 -37 -8 -18 18 -33 1 -33 -35 0 -30 -2 -32
-30 -28 -29 4 -30 3 -30 -32 0 -29 -4 -36 -19 -36 -27 0 -43 -24 -35 -54 4
-19 1 -33 -12 -47 -11 -12 -19 -35 -19 -53 0 -29 -2 -31 -32 -28 -27 3 -34 -1
-48 -28 -13 -26 -21 -31 -40 -26 -20 5 -27 -2 -55 -60 -31 -66 -32 -67 -16
-108 18 -47 21 -92 6 -101 -17 -11 -33 47 -34 130 -1 72 2 83 24 109 45 53 95
98 118 107 12 5 22 17 22 28 0 10 9 21 20 24 14 3 20 14 20 31 0 14 4 26 8 26
13 0 70 92 74 120 2 17 10 26 26 28 16 2 27 14 34 33 8 23 16 29 38 29 15 0
33 7 40 15 7 8 23 15 36 15 12 0 26 5 29 10 8 13 105 13 105 0z m166 -35
c-115 -65 -241 -165 -209 -165 5 0 18 10 29 21 56 62 269 189 317 189 31 0 31
-1 -20 -29 -119 -66 -184 -130 -347 -341 -92 -119 -132 -214 -143 -337 -5 -63
-8 -73 -25 -73 -18 0 -19 5 -13 43 4 23 18 80 32 126 13 46 22 86 19 88 -7 8
-57 -157 -63 -210 -6 -50 -23 -75 -23 -34 0 41 39 179 69 244 16 34 48 82 71
107 51 55 40 62 -12 9 -47 -48 -96 -153 -123 -263 -16 -60 -27 -86 -38 -88
-21 -4 -21 12 -2 101 8 37 29 95 47 130 38 72 173 217 265 285 35 25 61 48 58
50 -9 9 -90 -54 -182 -141 -129 -124 -189 -224 -208 -347 -6 -41 -9 -45 -33
-44 -15 0 -35 4 -46 9 -11 5 -26 4 -36 -3 -10 -6 -21 -8 -24 -5 -3 4 8 14 24
24 32 20 36 30 20 59 -7 13 -6 21 5 30 8 7 15 21 15 32 0 11 5 16 10 13 21
-13 41 16 34 49 -4 24 -1 36 16 51 17 16 20 26 14 62 -6 41 -5 43 20 43 23 0
26 4 26 35 0 30 4 35 32 43 21 5 34 16 37 28 5 29 21 44 47 44 25 0 32 18 13
37 -8 8 -6 11 7 10 12 -1 19 4 18 15 -1 14 4 16 28 11 29 -6 30 -5 27 28 -4
64 -2 69 30 63 23 -5 34 -1 52 20 22 25 26 26 131 25 l109 -1 -75 -43z m314 8
c0 -62 -28 -224 -48 -283 -21 -58 -58 -125 -123 -222 -57 -84 -98 -174 -110
-247 -6 -34 -9 -64 -7 -67 3 -2 28 0 55 6 l50 11 5 63 c9 113 88 239 172 277
49 22 134 24 180 5 112 -47 189 -187 166 -304 -10 -53 -7 -59 36 -68 31 -6 31
-6 45 58 28 125 12 210 -66 368 -65 131 -105 257 -112 355 -5 75 -4 85 11 85
13 0 16 -12 16 -75 0 -94 18 -148 118 -358 73 -156 76 -164 80 -248 3 -60 -1
-103 -12 -142 -21 -72 -21 -72 12 -86 15 -7 48 -26 75 -43 38 -24 45 -33 36
-44 -9 -11 -18 -9 -53 15 -90 62 -183 95 -349 126 -73 13 -108 14 -210 5 -153
-13 -177 -17 -255 -47 -87 -32 -137 -59 -198 -104 -50 -39 -74 -48 -74 -30 0
16 110 96 178 130 60 30 62 33 62 70 0 84 47 193 163 374 31 49 66 114 78 145
27 73 49 189 49 258 0 41 4 54 15 54 11 0 15 -11 15 -37z m612 -9 c24 -26 52
-60 62 -76 30 -47 56 -156 56 -235 0 -40 11 -131 25 -203 39 -200 35 -274 -20
-346 -35 -46 -132 -127 -144 -120 -6 4 7 29 30 59 22 29 46 75 54 102 13 49
31 225 26 255 -2 8 1 11 5 7 5 -4 14 -45 20 -90 l12 -82 0 60 c1 33 -6 78 -14
100 -30 77 -55 161 -69 223 -18 81 -155 325 -173 307 -3 -3 2 -13 10 -22 24
-27 123 -203 136 -242 22 -63 12 -64 -32 -3 -24 33 -61 72 -81 88 -46 34 -117
134 -150 208 l-25 56 115 0 115 0 42 -46z m40 11 l4 -35 -28 27 c-34 33 -35
43 -4 43 20 0 25 -6 28 -35z m42 1 c12 -30 20 -35 53 -38 35 -3 38 -6 43 -38
4 -28 9 -35 27 -33 18 2 22 -4 25 -37 2 -22 0 -40 -3 -40 -17 0 -120 104 -125
126 -5 20 -24 35 -24 19 0 -40 98 -135 189 -184 46 -24 67 -43 87 -77 15 -25
24 -47 22 -50 -10 -10 -38 9 -38 25 0 24 -20 41 -46 41 -17 0 -23 7 -26 27 -2
19 -11 29 -33 36 -16 5 -40 19 -52 30 -13 11 -23 16 -23 10 0 -16 35 -43 66
-52 22 -5 30 -15 34 -37 4 -23 11 -30 33 -32 18 -2 27 -9 27 -21 0 -25 26 -44
51 -38 17 5 20 1 17 -21 -3 -23 -8 -27 -39 -30 -63 -5 -83 10 -134 105 -26 48
-59 102 -74 118 -48 53 -111 225 -82 225 6 0 17 -15 25 -34z m123 -33 l35 -63
-26 0 c-23 0 -26 4 -26 35 0 28 -4 36 -24 41 -14 3 -29 3 -35 0 -12 -8 -41 21
-41 40 0 12 10 14 41 12 39 -3 43 -6 76 -65z m683 48 c0 -23 -44 -104 -67
-123 -15 -12 -16 -10 -9 12 4 14 9 43 11 65 4 35 2 31 -18 -25 -29 -84 -52
-127 -77 -140 -18 -10 -20 -8 -20 25 0 22 9 49 23 68 27 36 61 117 53 125 -3
3 -12 -10 -20 -29 l-14 -34 -5 30 c-3 23 -4 19 -6 -15 -1 -42 -15 -80 -24 -70
-3 3 -7 33 -9 68 l-4 62 93 0 c84 0 93 -2 93 -19z m-2102 -61 c7 -12 17 -18
22 -15 6 3 10 -3 10 -14 0 -17 -5 -20 -30 -14 -24 4 -30 2 -30 -12 0 -11 -5
-15 -14 -12 -22 9 -27 -4 -11 -29 14 -22 13 -23 -13 -26 -19 -2 -31 -12 -41
-35 -10 -22 -22 -33 -40 -35 -22 -3 -26 -9 -29 -39 -3 -32 -7 -37 -33 -41 -34
-5 -38 11 -9 37 16 14 19 26 14 50 -5 30 -3 33 26 43 28 10 31 15 25 41 -6 28
-5 29 27 28 31 -2 33 0 33 31 0 25 3 31 15 26 31 -13 45 -9 48 14 4 27 13 28
30 2z m1752 -46 c11 -28 71 -104 83 -104 4 0 13 12 20 28 13 30 38 62 48 62 4
0 9 -30 13 -67 3 -38 8 -87 12 -110 7 -48 1 -52 -36 -23 -49 39 -154 14 -190
-45 -22 -35 -26 -85 -9 -116 17 -33 6 -42 -23 -19 -19 14 -34 42 -48 90 -11
37 -36 91 -55 119 -41 59 -41 61 -15 61 11 0 29 -13 42 -30 30 -41 44 -38 51
12 3 23 12 47 19 53 28 21 58 69 58 91 0 32 18 31 30 -2z m-271 -60 c10 -22 9
-25 -6 -22 -10 2 -19 13 -21 26 -5 30 12 28 27 -4z m22 -54 c13 -10 20 -19 16
-20 -11 0 -67 29 -67 35 0 12 30 3 51 -15z m381 -109 c20 -16 27 -35 37 -99
12 -80 12 -80 -19 -144 -16 -34 -45 -83 -63 -107 -27 -37 -38 -44 -72 -47 -47
-4 -70 -27 -80 -81 -8 -46 -41 -93 -63 -92 -15 1 -15 2 1 6 12 3 17 14 17 38
0 19 -4 36 -9 39 -5 3 -1 29 10 56 10 28 19 61 19 75 0 14 19 47 44 78 46 57
71 97 60 97 -4 0 -12 -8 -19 -17 -11 -15 -14 -14 -27 13 -43 84 -27 152 45
185 54 24 88 24 119 0z m101 -131 c-26 -49 -49 -88 -50 -86 -6 6 79 176 88
176 5 0 -12 -40 -38 -90z m-2209 63 c4 -9 -2 -25 -14 -38 -13 -13 -20 -35 -20
-58 0 -31 -4 -37 -20 -37 -11 0 -23 -8 -26 -17 -3 -10 -10 -28 -16 -39 -7 -15
-7 -28 1 -42 9 -17 7 -23 -11 -36 -12 -9 -37 -16 -54 -16 -29 0 -32 3 -37 38
-3 20 -9 51 -12 69 -8 39 31 133 55 132 32 -2 41 2 52 25 8 18 20 26 47 29 20
2 39 4 42 5 4 1 10 -5 13 -15z m2189 -230 c9 -21 21 -55 27 -76 6 -20 21 -42
32 -48 11 -6 30 -33 43 -60 22 -48 22 -52 8 -97 -9 -26 -18 -62 -20 -80 -5
-32 -6 -32 -24 -16 -22 20 -26 93 -7 112 15 15 -4 52 -43 81 -22 16 -29 18
-29 7 0 -25 -54 3 -79 41 l-22 34 43 70 c23 38 45 69 49 69 3 0 13 -17 22 -37z
m-93 -43 c-6 -11 -13 -20 -16 -20 -2 0 0 9 6 20 6 11 13 20 16 20 2 0 0 -9 -6
-20z m-2238 -40 c13 -21 38 -27 38 -10 0 14 33 13 48 -2 8 -8 15 -8 27 2 14
11 17 10 22 -8 4 -15 13 -22 30 -22 17 0 27 -7 30 -21 4 -14 11 -18 22 -13 48
20 57 17 70 -28 7 -24 19 -54 28 -66 18 -29 16 -32 -19 -25 -20 4 -28 12 -30
32 -2 20 -9 27 -30 29 -15 2 -34 14 -42 28 -11 15 -26 24 -43 24 -15 0 -37 10
-51 23 -14 13 -38 23 -60 24 -20 1 -55 6 -76 10 -38 8 -39 9 -22 26 23 22 43
22 58 -3z m-37 -37 c33 -8 72 -14 86 -14 15 1 35 -9 49 -24 16 -17 30 -23 45
-19 17 4 28 -2 44 -25 15 -20 29 -30 44 -28 17 1 23 -4 25 -23 5 -30 18 -40
57 -40 32 0 42 -11 81 -91 13 -26 29 -49 37 -52 7 -3 27 -39 45 -80 27 -64 30
-79 21 -111 -23 -84 14 -309 62 -376 18 -25 42 -179 33 -205 -3 -7 7 -20 21
-29 17 -11 26 -25 25 -39 -3 -38 -1 -45 20 -50 16 -4 20 -14 20 -44 0 -33 4
-40 28 -49 16 -6 31 -21 35 -33 4 -18 3 -20 -8 -11 -8 6 -23 10 -35 8 -18 -3
-29 16 -85 142 -52 118 -64 155 -65 198 0 32 -9 74 -24 110 -13 31 -32 86 -41
122 -9 36 -29 102 -45 147 -16 45 -34 117 -39 160 -5 44 -15 91 -20 107 -15
39 -129 163 -156 170 -12 3 -48 26 -80 51 -46 36 -67 45 -97 45 -21 0 -57 9
-79 20 -31 16 -50 19 -89 14 -43 -6 -50 -4 -50 11 0 9 9 19 20 22 12 3 20 14
20 25 0 15 4 18 18 13 9 -5 44 -14 77 -22z m2189 -24 c-5 -8 -10 -6 -16 5 -5
9 -6 21 -2 27 5 8 10 6 16 -5 5 -9 6 -21 2 -27z m46 21 c9 -16 8 -20 -5 -20
-8 0 -15 9 -15 20 0 11 2 20 5 20 2 0 9 -9 15 -20z m-89 -3 c-1 -4 -1 -14 -1
-22 0 -8 -7 -15 -15 -15 -16 0 -19 9 -9 35 6 15 26 17 25 2z m139 -49 c0 -4 8
-8 17 -8 9 0 25 -8 35 -17 16 -14 21 -15 28 -4 6 11 14 8 36 -14 l28 -28 -23
-18 c-49 -40 -129 -10 -166 62 -19 35 -19 39 0 39 8 0 15 8 15 18 1 15 2 15
15 -2 8 -11 15 -23 15 -28z m-66 -11 c7 -19 28 -50 46 -70 41 -47 35 -69 -17
-65 -34 3 -40 8 -60 48 -28 56 -30 107 -5 113 9 3 18 5 19 6 2 0 9 -14 17 -32z
m-56 -60 c35 -94 35 -94 18 -100 -41 -16 -76 41 -76 121 0 43 3 49 18 45 11
-2 26 -28 40 -66z m-2259 3 c33 -90 107 -192 240 -333 118 -123 181 -208 235
-314 37 -75 32 -79 -8 -6 -18 34 -70 102 -116 150 -45 48 -107 122 -138 163
-31 41 -92 121 -137 177 -153 193 -169 223 -121 223 19 0 27 -10 45 -60z m135
-48 c35 -59 99 -155 141 -212 42 -58 87 -125 100 -150 27 -53 55 -120 51 -120
-2 0 -15 18 -30 40 -14 22 -78 94 -141 160 -130 137 -198 227 -231 308 -31 76
-31 82 10 82 33 0 37 -4 100 -108z m1996 63 c0 -14 -4 -25 -10 -25 -5 0 -10
11 -10 25 0 14 5 25 10 25 6 0 10 -11 10 -25z m-797 -6 c126 -26 224 -66 302
-123 33 -25 69 -51 80 -59 17 -12 18 -17 6 -31 -7 -9 -20 -16 -27 -16 -8 0
-19 -11 -24 -25 -11 -28 -31 -32 -50 -10 -12 15 -10 26 12 58 17 23 -5 39 -42
31 -24 -5 -24 -5 -6 10 18 15 19 16 2 16 -14 0 -17 5 -12 26 6 22 5 24 -13 15
-37 -20 -61 -13 -67 19 -6 26 -11 30 -41 30 -27 0 -36 -5 -40 -20 -7 -26 -28
-20 -27 7 0 18 -6 20 -50 19 -43 -1 -51 2 -50 17 2 19 -11 23 -21 7 -3 -5 -17
-10 -31 -10 -13 0 -24 -4 -24 -10 0 -5 5 -10 12 -10 9 0 9 -3 0 -12 -9 -9 -16
-8 -29 4 -10 8 -24 13 -31 11 -7 -3 -18 0 -25 5 -8 7 -18 7 -27 2 -23 -15 -29
-12 -23 11 5 19 3 20 -18 13 -13 -5 -41 -8 -61 -7 -25 1 -38 -3 -38 -12 0 -21
-52 -29 -66 -10 -12 16 -15 16 -36 1 -26 -18 -69 -21 -85 -5 -7 7 -12 3 -17
-15 -5 -19 -13 -26 -30 -26 -18 0 -25 -6 -28 -22 -2 -18 -10 -23 -31 -23 -15
0 -31 -6 -36 -13 -4 -7 -15 -10 -23 -7 -9 4 -18 0 -21 -9 -6 -16 -37 -23 -37
-8 1 11 111 87 167 115 164 82 401 108 606 66z m-263 -55 c0 -10 8 -15 23 -13
12 1 30 -1 40 -6 9 -4 24 -5 32 -2 8 4 17 2 20 -3 11 -17 42 -11 59 13 12 15
18 18 22 10 3 -8 25 -13 54 -13 39 0 49 -4 53 -20 3 -12 14 -20 27 -20 13 0
24 8 27 20 8 31 42 25 54 -10 9 -25 16 -30 45 -30 31 0 34 -3 34 -29 0 -27 4
-30 35 -33 l36 -3 -43 -47 c-35 -39 -56 -52 -118 -72 -112 -36 -140 -41 -140
-22 0 9 -5 16 -10 16 -6 0 -20 11 -32 25 -12 14 -32 25 -44 25 -13 0 -26 5
-29 11 -4 5 -17 9 -28 8 -12 -2 -32 2 -44 9 -21 12 -53 7 -53 -8 0 -5 -9 -6
-20 -3 -11 3 -27 -1 -36 -8 -9 -7 -25 -14 -36 -14 -12 -1 -26 -9 -33 -18 -7
-10 -20 -17 -29 -17 -9 0 -19 -7 -22 -15 -4 -8 -11 -15 -17 -15 -6 0 -20 -11
-32 -25 -19 -23 -24 -24 -76 -17 -31 5 -65 16 -74 26 -10 9 -25 14 -35 11 -22
-7 -39 16 -69 91 -20 52 -14 79 14 68 6 -3 18 2 25 11 7 8 23 15 36 15 14 0
30 10 40 25 9 14 22 25 29 25 7 0 15 7 19 15 3 8 11 12 19 9 8 -3 33 1 56 9
22 8 44 11 47 6 8 -14 61 -10 77 5 8 8 29 16 48 19 19 2 37 5 42 5 4 1 7 -5 7
-14z m1050 -24 c0 -5 -7 -10 -14 -10 -8 0 -27 -16 -42 -35 -32 -43 -46 -50
-100 -59 -35 -6 -45 -4 -67 16 -14 13 -28 33 -32 45 -5 20 -1 22 62 28 37 4
75 11 83 16 21 12 110 11 110 -1z m62 -68 c17 -39 43 -161 35 -168 -3 -3 -22
6 -42 21 -21 14 -42 25 -46 25 -9 0 -39 53 -39 68 0 10 62 92 70 92 3 0 13
-17 22 -38z m-340 -78 c21 -11 43 -14 68 -10 29 4 41 2 54 -13 16 -18 15 -20
-15 -45 -29 -25 -37 -27 -83 -21 -67 9 -86 27 -86 80 0 46 9 63 22 40 5 -8 23
-22 40 -31z m261 -111 c8 -4 22 -25 30 -46 10 -22 26 -41 42 -47 40 -15 30
-20 -45 -20 -62 0 -74 3 -95 25 -28 27 -32 68 -13 139 l12 44 27 -43 c15 -24
34 -47 42 -52z m-957 76 c3 -6 0 -18 -9 -26 -18 -18 -37 -9 -37 18 0 21 34 27
46 8z m-69 -15 c3 -8 1 -20 -5 -26 -15 -15 -43 8 -35 28 7 19 32 18 40 -2z
m133 -4 c0 -13 -7 -20 -20 -20 -13 0 -20 7 -20 20 0 13 7 20 20 20 13 0 20 -7
20 -20z m-198 -42 c-16 -16 -37 4 -28 28 6 16 8 16 23 1 13 -13 15 -19 5 -29z
m255 31 c14 -14 6 -39 -12 -39 -18 0 -28 17 -21 35 6 18 18 19 33 4z m-67 -24
c11 3 20 0 24 -10 3 -8 14 -15 25 -15 28 0 35 -30 12 -54 -13 -14 -21 -38 -23
-71 l-3 -50 -57 -6 c-31 -3 -72 -16 -91 -28 -45 -28 -101 -89 -127 -141 -11
-22 -25 -38 -30 -35 -15 9 -24 75 -11 88 22 22 13 58 -19 70 -21 8 -30 18 -30
35 0 12 -7 25 -15 28 -22 9 -19 54 4 54 10 0 33 18 52 40 19 22 40 40 47 40 7
0 15 7 18 15 4 8 12 15 18 15 7 0 17 5 24 12 12 12 45 18 94 18 15 0 30 4 33
10 4 6 12 4 22 -5 8 -9 23 -13 33 -10z m-232 -22 c-5 -26 -38 -29 -38 -4 0 15
6 21 21 21 14 0 19 -5 17 -17z m350 -6 c2 -12 -3 -17 -17 -17 -12 0 -21 6 -21
13 0 31 32 34 38 4z m182 -11 c0 -19 4 -46 10 -61 15 -39 -13 -89 -43 -78 -12
4 -38 6 -57 5 -44 -2 -70 12 -53 29 9 9 20 9 44 0 17 -6 45 -11 62 -11 27 0
29 2 24 33 -2 17 -11 47 -18 65 -12 28 -12 34 1 42 25 16 30 12 30 -24z m60
15 c0 -11 -4 -23 -10 -26 -5 -3 -10 -28 -10 -55 0 -27 -4 -52 -10 -55 -16 -10
-12 -45 5 -45 8 0 22 -11 31 -25 16 -24 16 -60 -2 -158 -5 -28 -1 -48 11 -71
18 -33 18 -34 -4 -70 -22 -35 -22 -38 -7 -83 l16 -47 -36 -54 c-35 -50 -36
-55 -25 -91 14 -49 14 -128 0 -137 -8 -4 -9 5 -5 32 4 24 1 62 -8 98 -16 59
-16 60 10 104 23 39 26 52 21 101 -4 33 -1 69 5 88 10 27 9 35 -6 51 -16 18
-16 22 0 63 34 90 27 162 -18 194 -19 13 -19 14 -3 43 15 25 16 36 6 75 -17
71 -15 87 14 87 18 0 25 -5 25 -19z m-102 -38 c7 -21 16 -49 19 -62 6 -23 4
-24 -28 -16 -113 27 -140 -3 -64 -69 49 -43 56 -65 40 -134 -6 -30 -8 -31 -20
-16 -7 11 -10 34 -7 60 4 41 2 46 -42 90 -45 47 -59 85 -34 100 6 4 30 8 52 8
39 1 41 3 40 31 0 26 10 44 26 45 3 0 11 -17 18 -37z m-541 11 c8 -21 -13 -42
-28 -27 -13 13 -5 43 11 43 6 0 13 -7 17 -16z m-217 -1 c-8 -3 -25 -15 -37
-26 -13 -11 -23 -16 -23 -9 0 18 30 42 53 41 15 0 17 -2 7 -6z m650 -3 c0 -5
-11 -10 -25 -10 -31 0 -59 -41 -59 -88 0 -26 7 -40 27 -56 38 -30 34 -39 -8
-18 -31 15 -35 21 -35 59 0 56 18 93 55 109 37 16 45 17 45 4z m52 0 c4 -32 2
-35 -34 -32 -27 3 -42 -2 -57 -17 -30 -30 -26 -48 24 -98 51 -52 61 -74 46
-102 -8 -15 -5 -29 15 -65 36 -64 54 -138 54 -223 l0 -73 -25 12 c-19 9 -29 8
-48 -5 l-25 -16 10 37 c5 20 12 55 15 77 5 38 3 41 -31 57 -29 14 -38 15 -48
4 -8 -7 -24 -13 -37 -12 -31 1 -51 -28 -32 -46 12 -11 13 -10 8 4 -7 20 18 45
28 28 9 -15 35 -12 35 5 0 19 29 19 55 0 19 -15 19 -17 2 -79 -9 -35 -17 -89
-17 -120 0 -70 21 -96 79 -96 l38 0 -15 -74 -14 -74 -37 5 c-26 4 -41 0 -50
-11 -12 -14 -15 -14 -37 0 -22 15 -26 15 -61 -6 -31 -18 -38 -19 -45 -6 -13
23 -65 30 -92 12 -22 -14 -25 -13 -47 10 -12 13 -28 24 -35 24 -19 0 -34 33
-34 76 0 38 -14 93 -33 129 -6 11 -18 40 -28 65 -16 43 -16 47 1 80 12 24 18
56 17 95 -1 44 5 71 22 103 32 63 88 120 144 149 43 21 58 24 105 18 47 -6 62
-13 103 -52 27 -25 49 -41 49 -36 0 5 -9 18 -20 28 -11 10 -20 28 -20 40 0 13
-11 30 -25 39 -48 32 -22 126 35 126 11 0 23 7 26 15 7 17 33 21 36 5z m517
-38 c-6 -18 -14 -32 -18 -32 -19 0 -19 15 0 42 26 36 33 32 18 -10z m-1214 16
c-11 -6 -27 -16 -35 -22 -9 -6 -5 -1 8 12 13 12 28 22 35 22 7 0 3 -6 -8 -12z
m110 -33 c1 -17 4 -36 9 -43 7 -11 4 -11 -13 0 -17 11 -23 10 -37 -4 -13 -13
-21 -14 -41 -5 -34 15 -51 -6 -68 -89 l-15 -69 6 60 c8 88 32 132 67 126 18
-3 89 27 79 33 -7 4 -20 2 -31 -4 -11 -5 -31 -10 -44 -10 -16 0 -35 -12 -53
-32 -25 -30 -26 -31 -19 -8 14 48 70 81 130 77 26 -2 30 -6 30 -32z m63 8 c-2
-10 -10 -18 -18 -18 -8 0 -16 8 -18 18 -2 12 3 17 18 17 15 0 20 -5 18 -17z
m-52 -80 c20 -17 34 -37 34 -50 0 -12 5 -23 12 -25 8 -3 8 -12 0 -33 l-10 -30
-1 33 c-1 54 -64 101 -117 88 -42 -11 -57 -58 -51 -155 6 -80 5 -84 -8 -56
-10 22 -13 51 -9 105 8 101 21 143 43 135 38 -16 51 -17 57 -1 8 21 9 21 50
-11z m-179 -25 c-3 -8 -6 -5 -6 6 -1 11 2 17 5 13 3 -3 4 -12 1 -19z m797 -12
c42 -39 45 -69 17 -156 -14 -42 -20 -51 -26 -37 -4 9 -2 37 4 62 18 73 14 94
-25 131 -22 21 -30 34 -20 34 8 0 31 -15 50 -34z m16 19 c7 -8 16 -12 21 -9
15 9 57 -42 64 -78 4 -23 0 -50 -14 -86 -25 -63 -26 -80 -5 -103 14 -15 14
-20 1 -46 -12 -23 -13 -38 -5 -74 10 -41 8 -52 -13 -94 -27 -55 -38 -39 -20
30 14 55 14 172 1 180 -17 10 -11 43 15 95 14 27 25 62 25 77 0 29 -34 95 -47
91 -5 -2 -19 5 -33 15 -13 9 -19 17 -13 17 6 0 16 -7 23 -15z m-643 -31 c26
-16 39 -56 27 -81 -6 -15 -9 -12 -12 12 -2 17 -8 36 -14 43 -16 19 -56 14 -79
-9 -23 -23 -23 -35 -3 -224 4 -33 4 -57 0 -54 -4 4 -13 62 -21 130 -11 91 -12
133 -4 156 17 53 51 62 106 27z m1042 7 c15 -27 -9 -56 -37 -47 -21 7 -31 44
-15 59 13 13 42 7 52 -12z m-342 -70 c4 -15 -5 -46 -27 -92 -29 -59 -31 -70
-20 -84 10 -12 13 -41 11 -104 -4 -134 -18 -129 -23 10 -3 102 -1 134 15 179
10 32 17 75 15 103 -3 41 -1 45 10 30 7 -10 16 -29 19 -42z m-715 27 c8 -7 18
-27 21 -45 5 -27 3 -32 -16 -35 -31 -4 -33 -41 -6 -100 22 -47 22 -52 9 -121
-20 -111 -23 -153 -10 -177 10 -18 9 -21 -1 -18 -24 8 -29 78 -12 152 16 66
16 72 -5 151 -23 85 -26 122 -16 149 8 20 24 21 24 1 0 -8 -5 -15 -11 -15 -5
0 -8 -4 -4 -10 9 -14 35 0 35 20 0 29 -25 43 -44 25 -27 -28 -28 -60 -6 -141
25 -88 27 -124 10 -194 -14 -60 -35 -68 -25 -10 10 59 8 169 -4 220 -17 71
-14 117 9 140 23 23 31 24 52 8z m113 -7 c3 -5 -2 -25 -11 -44 -16 -33 -16
-37 4 -79 31 -67 36 -132 12 -178 -26 -50 -25 -56 8 -126 35 -71 50 -122 56
-189 l4 -50 -18 35 c-10 20 -23 62 -29 94 -7 39 -21 71 -43 98 -35 44 -34 52
7 159 18 46 18 46 -8 112 -24 61 -26 71 -15 122 10 52 20 66 33 46z m-31 -173
c21 -48 20 -72 -4 -136 -27 -71 -25 -97 9 -140 19 -24 33 -57 40 -94 6 -32 17
-71 26 -87 20 -40 19 -49 -4 -20 -10 13 -23 40 -30 59 -6 19 -29 64 -51 100
-22 36 -40 72 -40 81 0 9 12 42 26 73 l26 57 -28 89 c-24 80 -26 93 -14 118
l14 27 6 -45 c4 -25 14 -62 24 -82z m-64 70 c0 -13 9 -52 20 -86 25 -80 25
-103 0 -152 -27 -53 -25 -90 7 -136 32 -48 76 -144 68 -152 -6 -7 -3 -12 -59
83 -25 44 -49 90 -52 102 -3 12 1 53 10 92 20 86 20 150 2 176 -17 25 -28 73
-21 85 11 18 25 10 25 -12z m-166 -438 c11 -57 -11 -15 -35 65 -12 39 -34 102
-50 142 -16 39 -29 78 -28 85 1 19 105 -250 113 -292z m716 110 c-19 -12 23
-22 55 -14 21 5 27 4 23 -7 -3 -8 -22 -15 -46 -17 -48 -4 -61 12 -41 50 8 16
14 19 17 9 2 -7 -1 -17 -8 -21z m90 -77 c0 -33 -82 -26 -101 8 -10 20 -9 21
20 14 17 -3 38 -2 48 4 18 10 33 -1 33 -26z m41 -96 c1 -21 -4 -44 -10 -50 -8
-8 -11 10 -10 69 1 64 2 74 10 49 5 -16 10 -47 10 -68z m-652 46 c19 -29 20
-32 4 -26 -23 8 -33 23 -33 47 0 11 1 17 3 15 2 -2 14 -19 26 -36z m608 -100
c-3 -10 -5 -4 -5 12 0 17 2 24 5 18 2 -7 2 -21 0 -30z m-593 -6 c6 -9 7 -19 3
-23 -9 -10 -48 26 -41 38 8 12 25 6 38 -15z m81 -3 c16 -17 29 -23 37 -18 22
14 52 4 75 -24 21 -25 23 -25 41 -9 23 21 78 22 86 2 7 -19 35 -19 60 0 25 19
50 19 66 0 12 -14 15 -13 35 5 24 23 38 25 64 9 14 -10 24 -8 49 11 30 22 52
21 52 -4 0 -7 -17 -26 -38 -43 -31 -25 -39 -28 -50 -17 -17 18 -61 18 -68 -1
-4 -10 -15 -12 -35 -8 -16 3 -35 0 -43 -6 -10 -8 -16 -9 -21 -1 -8 13 -48 13
-62 -1 -8 -8 -13 -8 -17 0 -4 6 -22 11 -40 11 -17 0 -37 5 -43 11 -6 6 -21 9
-34 7 -14 -2 -32 6 -46 20 -15 15 -30 21 -42 17 -10 -3 -24 1 -31 10 -7 8 -21
15 -31 15 -21 0 -33 15 -24 30 11 17 35 11 60 -16z m-450 -54 c-5 -8 -11 -8
-17 -2 -6 6 -7 16 -3 22 5 8 11 8 17 2 6 -6 7 -16 3 -22z m433 18 c21 -21 13
-27 -18 -17 -16 6 -27 15 -24 20 7 13 28 11 42 -3z m82 -33 c7 -9 11 -18 8
-21 -7 -7 -58 17 -58 28 0 14 37 9 50 -7z m71 -25 c29 -16 24 -33 -8 -25 -34
8 -37 11 -28 24 8 14 11 14 36 1z m339 -10 c0 -5 -6 -10 -14 -10 -8 0 -21 -3
-30 -6 -11 -4 -16 -1 -16 10 0 11 9 16 30 16 17 0 30 -4 30 -10z m-252 -17 c2
-9 -7 -13 -27 -13 -30 0 -39 9 -24 24 11 10 46 3 51 -11z m156 11 c22 -9 10
-24 -20 -24 -25 0 -33 15 -11 23 6 3 13 6 14 6 1 1 8 -2 17 -5z m-69 -14 c3
-5 3 -10 -2 -10 -4 0 -18 -3 -30 -6 -17 -5 -23 -2 -23 10 0 18 45 23 55 6z
m-695 -25 c0 -8 -6 -15 -14 -15 -17 0 -28 14 -19 24 12 12 33 6 33 -9z"/>
<path d="M1826 4709 c-15 -12 -25 -24 -21 -27 3 -3 11 2 18 12 21 29 95 32
152 7 65 -29 82 -25 20 5 -64 31 -132 32 -169 3z"/>
<path d="M1823 4650 c-14 -12 -19 -27 -16 -40 7 -25 49 -60 74 -60 21 0 110
40 122 55 4 6 -7 22 -23 38 -25 22 -39 27 -83 27 -39 0 -59 -5 -74 -20z m137
-5 c39 -20 39 -37 0 -24 -16 6 -56 9 -89 7 -59 -3 -69 5 -27 22 33 14 84 11
116 -5z m-98 -50 c-5 -29 -6 -30 -26 -9 -19 18 -13 34 13 34 14 0 17 -6 13
-25z m85 19 c25 -7 22 -18 -9 -35 -15 -8 -19 -8 -13 0 4 7 1 18 -5 26 -13 16
-7 18 27 9z"/>
<path d="M1676 4354 c-15 -14 -14 -18 5 -45 16 -23 27 -29 57 -28 38 0 93 26
99 46 12 35 -130 59 -161 27z"/>
<path d="M1616 3528 c-26 -99 38 -244 127 -287 52 -25 135 -28 183 -5 44 21
111 95 134 147 20 47 35 152 23 160 -4 3 -29 3 -55 0 l-48 -6 6 -37 c3 -21 1
-46 -4 -56 -16 -28 -139 -154 -151 -154 -6 0 -22 17 -36 38 -14 20 -41 57 -61
81 -31 39 -35 51 -32 88 3 46 -3 53 -52 53 -20 0 -29 -6 -34 -22z m74 -12 c0
-20 -12 -26 -40 -19 -22 6 -22 7 -5 20 24 17 45 17 45 -1z m380 -1 c0 -13 -4
-14 -22 -4 -34 17 -34 19 -5 19 18 0 27 -5 27 -15z m-5 -35 c4 -6 -6 -10 -24
-10 -17 0 -31 4 -31 9 0 5 -3 17 -6 26 -6 16 -5 16 24 1 17 -9 34 -20 37 -26z
m-385 -10 c0 -9 -25 -20 -46 -20 -8 0 -14 8 -14 18 0 15 6 18 30 14 17 -2 30
-8 30 -12z m384 -37 c-10 -43 -20 -47 -43 -18 -25 33 -20 45 20 45 27 0 29 -2
23 -27z m-364 2 c11 -13 7 -15 -29 -15 -46 0 -52 6 -18 20 31 12 33 12 47 -5z
m327 -61 c-3 -3 -17 2 -31 11 -21 14 -24 21 -15 31 9 11 15 9 31 -12 11 -14
18 -27 15 -30z m-322 25 c4 -6 -3 -22 -16 -35 -22 -23 -24 -24 -36 -8 -19 26
-16 42 10 47 12 2 25 5 29 6 4 0 10 -4 13 -10z m25 -61 c-53 -32 -64 -23 -27
22 20 25 24 26 40 12 16 -14 15 -16 -13 -34z m299 15 c2 -1 -6 -14 -17 -28
l-21 -26 -15 30 c-9 16 -16 37 -16 46 0 14 3 14 33 -2 17 -10 34 -19 36 -20z
m-74 -13 c29 -55 15 -67 -23 -20 -22 28 -23 50 -2 50 5 0 16 -13 25 -30z
m-197 -50 c-15 -35 -28 -38 -52 -11 -18 20 -18 21 32 46 32 18 39 7 20 -35z
m176 11 l28 -29 -26 -17 c-15 -10 -28 -16 -30 -14 -9 10 -17 89 -9 89 5 0 22
-13 37 -29z m-143 -35 c-26 -25 -35 -17 -20 18 10 21 15 24 26 14 12 -10 11
-15 -6 -32z m94 -24 c-4 -4 -13 2 -21 12 -11 15 -11 22 -2 34 10 12 14 10 21
-13 5 -14 6 -29 2 -33z m-35 8 c10 -18 8 -20 -25 -20 -37 0 -43 8 -23 28 18
18 36 15 48 -8z"/>
<path d="M1752 3518 c-26 -26 -14 -70 33 -115 25 -23 45 -49 45 -58 0 -8 5
-15 10 -15 6 0 10 7 10 15 0 9 20 35 45 58 47 45 59 89 33 115 -15 15 -61 15
-76 0 -9 -9 -15 -9 -24 0 -7 7 -24 12 -38 12 -14 0 -31 -5 -38 -12z"/>
<path d="M2922 3350 c-3 -60 -21 -105 -58 -149 -20 -23 -34 -44 -31 -47 9 -9
77 80 88 116 6 19 9 53 6 75 -4 40 -4 40 -5 5z"/>
<path d="M940 3110 c0 -5 9 -12 20 -15 11 -3 20 -14 20 -24 0 -24 20 -41 46
-41 17 0 23 -7 26 -27 2 -19 11 -29 33 -36 17 -5 40 -19 53 -30 12 -11 22 -16
22 -10 0 16 -35 43 -66 52 -22 5 -30 15 -34 37 -4 23 -12 30 -35 34 -20 4 -31
12 -35 29 -5 23 -50 51 -50 31z"/>
<path d="M1235 2623 c-38 -31 -96 -81 -129 -110 -32 -30 -94 -79 -138 -110
-43 -30 -77 -58 -74 -60 8 -8 145 92 231 168 44 39 106 91 138 116 31 24 57
46 57 49 0 12 -21 -1 -85 -53z"/>
<path d="M1688 2180 c-49 -15 -96 -50 -131 -98 -46 -64 -60 -102 -61 -169 l-1
-57 50 3 c28 1 51 4 53 6 2 2 -2 13 -8 25 -18 33 4 83 56 125 58 48 66 64 52
103 -14 37 -4 54 16 26 11 -14 11 -22 3 -32 -8 -11 -5 -12 16 -7 22 6 29 1 51
-32 14 -21 40 -55 58 -76 28 -33 33 -47 33 -88 0 -43 3 -51 22 -55 55 -14 79
22 67 106 -8 49 -32 115 -40 107 -3 -3 -1 -14 5 -25 18 -34 13 -42 -24 -42
-19 0 -35 3 -35 6 0 3 11 19 25 36 14 16 25 33 25 37 0 12 -62 72 -89 85 -35
18 -110 26 -143 16z m102 -19 c0 -19 -31 -35 -48 -25 -30 20 -25 34 12 34 20
0 36 -4 36 -9z m-112 -7 c-4 -3 -2 -19 3 -36 13 -45 1 -53 -32 -22 -35 33 -35
38 -6 52 24 12 44 15 35 6z m142 -9 c0 -2 -5 -15 -12 -29 -9 -20 -14 -23 -25
-14 -11 9 -11 14 3 29 16 18 34 25 34 14z m59 -29 c11 -13 7 -18 -23 -32 -20
-10 -38 -15 -42 -12 -3 4 0 22 7 42 13 36 29 37 58 2z m-235 -34 c23 -25 25
-31 12 -41 -12 -10 -18 -6 -36 28 -24 48 -15 53 24 13z m-24 -49 c0 -17 -16
-16 -45 3 -23 15 -24 17 -8 40 l16 25 18 -28 c11 -15 19 -34 19 -40z m280 39
c0 -5 -12 -20 -28 -35 -27 -26 -28 -26 -40 -7 -10 17 -8 21 16 34 30 17 52 20
52 8z m-316 -57 c12 -9 16 -20 12 -31 -4 -9 -7 -15 -9 -13 -1 2 -13 16 -26 32
-27 29 -11 38 23 12z m-24 -32 c23 -29 14 -43 -29 -43 -19 0 -22 4 -17 23 3
12 6 28 6 35 0 20 17 14 40 -15z m384 -2 c3 -5 -8 -14 -25 -21 -26 -11 -32
-11 -40 1 -6 10 -1 16 19 20 40 10 40 10 46 0z m6 -41 c0 -15 -7 -20 -25 -20
-14 0 -25 4 -25 8 0 7 30 27 48 31 1 1 2 -8 2 -19z m-378 -34 c5 -24 4 -25
-23 -11 -41 21 -45 35 -11 35 24 0 31 -5 34 -24z m357 -5 c11 -7 10 -11 -7
-20 -28 -15 -32 -14 -32 9 0 21 16 26 39 11z m-389 -16 l25 -14 -32 -1 c-23 0
-33 5 -33 15 0 18 8 18 40 0z"/>
<path d="M1730 2065 c0 -8 -22 -40 -50 -70 -55 -60 -58 -70 -34 -103 17 -25
56 -29 77 -7 13 13 16 13 27 0 15 -17 43 -19 71 -5 13 7 19 21 19 44 0 27 -7
39 -36 61 -20 15 -42 43 -50 61 -15 36 -24 43 -24 19z"/>
<path d="M2866 2105 c-3 -9 -6 -31 -5 -48 1 -28 2 -26 10 12 9 46 6 65 -5 36z"/>
<path d="M707 2218 c-42 -56 -57 -95 -56 -145 l1 -48 8 50 c8 57 27 98 66 144
14 17 21 31 15 31 -5 0 -21 -15 -34 -32z"/>
<path d="M1768 1102 c-16 -10 -28 -23 -28 -29 0 -22 58 -44 107 -41 58 4 73
23 48 61 -14 22 -24 27 -59 26 -22 0 -53 -8 -68 -17z"/>
<path d="M1623 824 c-29 -13 -53 -29 -53 -33 0 -5 14 -21 31 -35 42 -36 116
-37 156 -1 15 13 22 25 15 25 -7 0 -10 4 -7 10 9 15 -41 60 -67 60 -13 0 -47
-12 -75 -26z m127 -25 c0 -12 -7 -19 -19 -19 -14 0 -17 6 -14 24 6 29 33 24
33 -5z m-96 5 c9 -24 8 -26 -16 -18 -32 9 -35 14 -18 24 21 13 27 12 34 -6z
m28 -32 c82 -5 80 -22 -1 -22 -45 0 -64 5 -82 21 -21 18 -21 20 -4 13 11 -4
50 -9 87 -12z"/>
<path d="M1585 694 c64 -31 132 -32 169 -3 15 12 25 24 22 27 -3 3 -15 -3 -25
-12 -31 -28 -91 -31 -146 -7 -65 29 -82 25 -20 -5z"/>
<path d="M712 3348 c-1 -14 -5 -35 -8 -45 -5 -14 -4 -15 5 -7 7 7 11 26 8 45
-3 28 -4 29 -5 7z"/>
</g>
</svg>
